%TF.GenerationSoftware,KiCad,Pcbnew,(6.0.10-0)*%
%TF.CreationDate,2023-01-16T20:28:57+10:30*%
%TF.ProjectId,BLE_Module_Front_Board,424c455f-4d6f-4647-956c-655f46726f6e,rev?*%
%TF.SameCoordinates,Original*%
%TF.FileFunction,Soldermask,Bot*%
%TF.FilePolarity,Negative*%
%FSLAX46Y46*%
G04 Gerber Fmt 4.6, Leading zero omitted, Abs format (unit mm)*
G04 Created by KiCad (PCBNEW (6.0.10-0)) date 2023-01-16 20:28:57*
%MOMM*%
%LPD*%
G01*
G04 APERTURE LIST*
G04 Aperture macros list*
%AMRoundRect*
0 Rectangle with rounded corners*
0 $1 Rounding radius*
0 $2 $3 $4 $5 $6 $7 $8 $9 X,Y pos of 4 corners*
0 Add a 4 corners polygon primitive as box body*
4,1,4,$2,$3,$4,$5,$6,$7,$8,$9,$2,$3,0*
0 Add four circle primitives for the rounded corners*
1,1,$1+$1,$2,$3*
1,1,$1+$1,$4,$5*
1,1,$1+$1,$6,$7*
1,1,$1+$1,$8,$9*
0 Add four rect primitives between the rounded corners*
20,1,$1+$1,$2,$3,$4,$5,0*
20,1,$1+$1,$4,$5,$6,$7,0*
20,1,$1+$1,$6,$7,$8,$9,0*
20,1,$1+$1,$8,$9,$2,$3,0*%
G04 Aperture macros list end*
%ADD10RoundRect,0.101600X-1.012500X-1.012500X1.012500X-1.012500X1.012500X1.012500X-1.012500X1.012500X0*%
%ADD11RoundRect,0.101600X-1.162500X-1.162500X1.162500X-1.162500X1.162500X1.162500X-1.162500X1.162500X0*%
%ADD12R,1.700000X1.700000*%
%ADD13O,1.700000X1.700000*%
%ADD14R,1.800000X1.800000*%
%ADD15C,1.800000*%
G04 APERTURE END LIST*
D10*
%TO.C,P6*%
X28575000Y-100825000D03*
D11*
X28575000Y-97725000D03*
X28575000Y-89505000D03*
%TD*%
D10*
%TO.C,P3*%
X28575000Y-57010000D03*
D11*
X28575000Y-53910000D03*
X28575000Y-45690000D03*
%TD*%
D12*
%TO.C,J2*%
X8270000Y-104115000D03*
D13*
X10810000Y-104115000D03*
X13350000Y-104115000D03*
X15890000Y-104115000D03*
X18430000Y-104115000D03*
X20970000Y-104115000D03*
X23510000Y-104115000D03*
X26050000Y-104115000D03*
%TD*%
D10*
%TO.C,P5*%
X28575000Y-86220000D03*
D11*
X28575000Y-83120000D03*
X28575000Y-74900000D03*
%TD*%
D12*
%TO.C,J1*%
X8270000Y-1880000D03*
D13*
X10810000Y-1880000D03*
X13350000Y-1880000D03*
X15890000Y-1880000D03*
X18430000Y-1880000D03*
X20970000Y-1880000D03*
X23510000Y-1880000D03*
X26050000Y-1880000D03*
%TD*%
D10*
%TO.C,P1*%
X28575000Y-27800000D03*
D11*
X28575000Y-24700000D03*
X28575000Y-16480000D03*
%TD*%
D14*
%TO.C,D1*%
X31755000Y-10795000D03*
D15*
X29215000Y-10795000D03*
%TD*%
D10*
%TO.C,P2*%
X28575000Y-42405000D03*
D11*
X28575000Y-39305000D03*
X28575000Y-31085000D03*
%TD*%
D10*
%TO.C,P4*%
X28575000Y-71615000D03*
D11*
X28575000Y-68515000D03*
X28575000Y-60295000D03*
%TD*%
D14*
%TO.C,D2*%
X31755000Y-3810000D03*
D15*
X29215000Y-3810000D03*
%TD*%
M02*
