%TF.GenerationSoftware,KiCad,Pcbnew,(6.0.10-0)*%
%TF.CreationDate,2023-01-16T20:28:06+10:30*%
%TF.ProjectId,BLE_Module_Faceplate,424c455f-4d6f-4647-956c-655f46616365,rev?*%
%TF.SameCoordinates,Original*%
%TF.FileFunction,Soldermask,Top*%
%TF.FilePolarity,Negative*%
%FSLAX46Y46*%
G04 Gerber Fmt 4.6, Leading zero omitted, Abs format (unit mm)*
G04 Created by KiCad (PCBNEW (6.0.10-0)) date 2023-01-16 20:28:06*
%MOMM*%
%LPD*%
G01*
G04 APERTURE LIST*
%ADD10C,3.200000*%
G04 APERTURE END LIST*
%TO.C,G\u002A\u002A\u002A*%
G36*
X5332201Y-42818262D02*
G01*
X5428350Y-42902351D01*
X5560361Y-43030434D01*
X5718193Y-43192639D01*
X5891804Y-43379094D01*
X5961306Y-43455901D01*
X6084999Y-43593714D01*
X4493435Y-43593714D01*
X4863918Y-43190876D01*
X5006542Y-43039602D01*
X5131397Y-42914244D01*
X5226176Y-42826661D01*
X5278570Y-42788716D01*
X5281957Y-42788038D01*
X5332201Y-42818262D01*
G37*
G36*
X4038424Y-2872426D02*
G01*
X4325503Y-2924014D01*
X4564085Y-3009670D01*
X4612339Y-3035641D01*
X4782174Y-3180638D01*
X4912458Y-3382618D01*
X4991044Y-3618309D01*
X5008796Y-3795279D01*
X4978853Y-4097941D01*
X4887951Y-4343858D01*
X4733379Y-4536048D01*
X4512425Y-4677526D01*
X4222379Y-4771309D01*
X4113068Y-4791977D01*
X3935081Y-4817935D01*
X3792654Y-4828438D01*
X3650688Y-4823418D01*
X3474081Y-4802811D01*
X3388800Y-4790617D01*
X3083984Y-4711465D01*
X2840461Y-4575507D01*
X2661677Y-4387952D01*
X2551079Y-4154010D01*
X2512110Y-3878893D01*
X2548219Y-3567809D01*
X2556704Y-3532486D01*
X2644036Y-3335151D01*
X2791266Y-3151746D01*
X2974232Y-3007451D01*
X3127262Y-2937931D01*
X3415199Y-2877799D01*
X3726955Y-2856492D01*
X4038424Y-2872426D01*
G37*
G36*
X7510869Y-2396D02*
G01*
X7510869Y-128698556D01*
X5360Y-128698556D01*
X5360Y-43935633D01*
X518364Y-43935633D01*
X525256Y-43991259D01*
X551702Y-44034894D01*
X606061Y-44068227D01*
X696691Y-44092944D01*
X831954Y-44110735D01*
X1020209Y-44123286D01*
X1269814Y-44132288D01*
X1589131Y-44139426D01*
X1902496Y-44144966D01*
X3150702Y-44166168D01*
X2510919Y-44832450D01*
X2282800Y-45072237D01*
X2110109Y-45261042D01*
X1987911Y-45407456D01*
X1911272Y-45520071D01*
X1875257Y-45607477D01*
X1874933Y-45678266D01*
X1905366Y-45741027D01*
X1955944Y-45798723D01*
X2012600Y-45848796D01*
X2068481Y-45876325D01*
X2131343Y-45876164D01*
X2208946Y-45843164D01*
X2309045Y-45772180D01*
X2439398Y-45658064D01*
X2607764Y-45495670D01*
X2821899Y-45279851D01*
X2976528Y-45121598D01*
X3181329Y-44912779D01*
X3367400Y-44725694D01*
X3526406Y-44568511D01*
X3650013Y-44449397D01*
X3729887Y-44376518D01*
X3756851Y-44356986D01*
X3794876Y-44386182D01*
X3883410Y-44468335D01*
X4014153Y-44595297D01*
X4178803Y-44758919D01*
X4369063Y-44951053D01*
X4541000Y-45126873D01*
X4771469Y-45363239D01*
X4951086Y-45545165D01*
X5087765Y-45679356D01*
X5189424Y-45772518D01*
X5263979Y-45831354D01*
X5319347Y-45862568D01*
X5363442Y-45872867D01*
X5404182Y-45868954D01*
X5414433Y-45866622D01*
X5522888Y-45822195D01*
X5592087Y-45767095D01*
X5630291Y-45705788D01*
X5644480Y-45642807D01*
X5629212Y-45569482D01*
X5579045Y-45477146D01*
X5488539Y-45357132D01*
X5352251Y-45200773D01*
X5164739Y-44999400D01*
X5005309Y-44832450D01*
X4365527Y-44166168D01*
X5613732Y-44144966D01*
X5988186Y-44138142D01*
X6286805Y-44130909D01*
X6518559Y-44121961D01*
X6692416Y-44109995D01*
X6817346Y-44093705D01*
X6902317Y-44071786D01*
X6956298Y-44042932D01*
X6988259Y-44005838D01*
X7007168Y-43959200D01*
X7012075Y-43941481D01*
X7015362Y-43837762D01*
X7006057Y-43798431D01*
X6970824Y-43750175D01*
X6884520Y-43649934D01*
X6755196Y-43506523D01*
X6590906Y-43328758D01*
X6399701Y-43125453D01*
X6202902Y-42919225D01*
X5964690Y-42672307D01*
X5776794Y-42480553D01*
X5631595Y-42337191D01*
X5521472Y-42235451D01*
X5438806Y-42168560D01*
X5375978Y-42129747D01*
X5325368Y-42112242D01*
X5291216Y-42109024D01*
X5241824Y-42114979D01*
X5186317Y-42138072D01*
X5116303Y-42185543D01*
X5023393Y-42264632D01*
X4899198Y-42382577D01*
X4735327Y-42546617D01*
X4523392Y-42763991D01*
X4478982Y-42809869D01*
X4283676Y-43009948D01*
X4106682Y-43187798D01*
X3956830Y-43334826D01*
X3842950Y-43442442D01*
X3773875Y-43502052D01*
X3758114Y-43511264D01*
X3717723Y-43482012D01*
X3627626Y-43399986D01*
X3496654Y-43273776D01*
X3333637Y-43111976D01*
X3147406Y-42923176D01*
X3037246Y-42809869D01*
X2815658Y-42582006D01*
X2643663Y-42408796D01*
X2512869Y-42282998D01*
X2414889Y-42197375D01*
X2341331Y-42144687D01*
X2283807Y-42117694D01*
X2233927Y-42109159D01*
X2225012Y-42109024D01*
X2178543Y-42115097D01*
X2125508Y-42137454D01*
X2058288Y-42182866D01*
X1969262Y-42258105D01*
X1850811Y-42369941D01*
X1695316Y-42525147D01*
X1495157Y-42730493D01*
X1313326Y-42919208D01*
X1070838Y-43173046D01*
X882075Y-43374552D01*
X740725Y-43531292D01*
X640471Y-43650830D01*
X574999Y-43740729D01*
X537993Y-43808556D01*
X523141Y-43861873D01*
X522664Y-43866327D01*
X518364Y-43935633D01*
X5360Y-43935633D01*
X5360Y-34614670D01*
X1557490Y-34614670D01*
X1578077Y-34986300D01*
X1621281Y-35320150D01*
X1651858Y-35466145D01*
X1809117Y-35992691D01*
X2013751Y-36469510D01*
X2278014Y-36921485D01*
X2555152Y-37300286D01*
X2813256Y-37625083D01*
X3208169Y-37231811D01*
X3603083Y-36838540D01*
X3392333Y-36579984D01*
X3109447Y-36168861D01*
X2895157Y-35720593D01*
X2749939Y-35246008D01*
X2674265Y-34755932D01*
X2671076Y-34476853D01*
X3217012Y-34476853D01*
X3253507Y-34939867D01*
X3361132Y-35383923D01*
X3534969Y-35794925D01*
X3770103Y-36158777D01*
X3828215Y-36229517D01*
X4003917Y-36434436D01*
X4396071Y-36043912D01*
X4788226Y-35653388D01*
X4648741Y-35470654D01*
X4508436Y-35257540D01*
X4417161Y-35039902D01*
X4367439Y-34792717D01*
X4351793Y-34490964D01*
X4351770Y-34476853D01*
X4903811Y-34476853D01*
X4906695Y-34664743D01*
X4920359Y-34796815D01*
X4950844Y-34901926D01*
X5004192Y-35008935D01*
X5021421Y-35038706D01*
X5091790Y-35149663D01*
X5148051Y-35222819D01*
X5170719Y-35240125D01*
X5210671Y-35211707D01*
X5297589Y-35134078D01*
X5419160Y-35018680D01*
X5563073Y-34876951D01*
X5581784Y-34858190D01*
X5961950Y-34476254D01*
X5571233Y-34085536D01*
X5411604Y-33926975D01*
X5300327Y-33821331D01*
X5226248Y-33761092D01*
X5178213Y-33738750D01*
X5145069Y-33746792D01*
X5115662Y-33777709D01*
X5115116Y-33778407D01*
X5011866Y-33925140D01*
X4948163Y-34062768D01*
X4915197Y-34220405D01*
X4904161Y-34427162D01*
X4903811Y-34476853D01*
X4351770Y-34476853D01*
X4366160Y-34172286D01*
X4414315Y-33923329D01*
X4503711Y-33704960D01*
X4641827Y-33492158D01*
X4648741Y-33483052D01*
X4788226Y-33300318D01*
X4394430Y-32908160D01*
X4000635Y-32516001D01*
X3806666Y-32763138D01*
X3540874Y-33162908D01*
X3355593Y-33584884D01*
X3248493Y-34035835D01*
X3217012Y-34476853D01*
X2671076Y-34476853D01*
X2668611Y-34261192D01*
X2733450Y-33772617D01*
X2869258Y-33301032D01*
X3076507Y-32857266D01*
X3219369Y-32631474D01*
X3325104Y-32483322D01*
X3428112Y-32343948D01*
X3502043Y-32248625D01*
X3607330Y-32119396D01*
X2821646Y-31336978D01*
X2590214Y-31614305D01*
X2260564Y-32068470D01*
X1980700Y-32574784D01*
X1762161Y-33109701D01*
X1634144Y-33565167D01*
X1585251Y-33874896D01*
X1559790Y-34234466D01*
X1557490Y-34614670D01*
X5360Y-34614670D01*
X5360Y-27225768D01*
X1574308Y-27225768D01*
X2634408Y-27225768D01*
X2634408Y-25741628D01*
X5941920Y-25741628D01*
X5941920Y-24299891D01*
X2634408Y-24299891D01*
X2634408Y-22815751D01*
X1574308Y-22815751D01*
X1574308Y-27225768D01*
X5360Y-27225768D01*
X5360Y-22137287D01*
X1574308Y-22137287D01*
X5941920Y-22137287D01*
X5941920Y-18193714D01*
X4966628Y-18193714D01*
X4966628Y-20695551D01*
X4076144Y-20695551D01*
X4076144Y-18448138D01*
X3185660Y-18448138D01*
X3185660Y-20695551D01*
X2507196Y-20695551D01*
X2507196Y-18278522D01*
X1574308Y-18278522D01*
X1574308Y-22137287D01*
X5360Y-22137287D01*
X5360Y-17388038D01*
X1574308Y-17388038D01*
X5941920Y-17388038D01*
X5941920Y-13698890D01*
X4881820Y-13698890D01*
X4881820Y-15946302D01*
X1574308Y-15946302D01*
X1574308Y-17388038D01*
X5360Y-17388038D01*
X5360Y-13020426D01*
X1574308Y-13020426D01*
X5941920Y-13020426D01*
X5941920Y-9076853D01*
X4966628Y-9076853D01*
X4966628Y-11578689D01*
X4076144Y-11578689D01*
X4076144Y-9288873D01*
X3185660Y-9288873D01*
X3185660Y-11578689D01*
X2507196Y-11578689D01*
X2507196Y-9119257D01*
X1574308Y-9119257D01*
X1574308Y-13020426D01*
X5360Y-13020426D01*
X5360Y-8610409D01*
X3864124Y-8610409D01*
X4839416Y-8610409D01*
X4839416Y-6702229D01*
X3864124Y-6702229D01*
X3864124Y-8610409D01*
X5360Y-8610409D01*
X5360Y-3848771D01*
X1490236Y-3848771D01*
X1523657Y-4344283D01*
X1620637Y-4790224D01*
X1779014Y-5183652D01*
X1996628Y-5521624D01*
X2271316Y-5801197D01*
X2600916Y-6019428D01*
X2983269Y-6173373D01*
X3242531Y-6234644D01*
X3464687Y-6258052D01*
X3734945Y-6261727D01*
X4022356Y-6247449D01*
X4295972Y-6217000D01*
X4524844Y-6172160D01*
X4574312Y-6158017D01*
X4950057Y-5997860D01*
X5277374Y-5769599D01*
X5552372Y-5477300D01*
X5771163Y-5125030D01*
X5919411Y-4751644D01*
X5963830Y-4549804D01*
X5995606Y-4289386D01*
X6013977Y-3995787D01*
X6018178Y-3694401D01*
X6007445Y-3410624D01*
X5981015Y-3169850D01*
X5968934Y-3105171D01*
X5841657Y-2676683D01*
X5655948Y-2309567D01*
X5412472Y-2004368D01*
X5111896Y-1761634D01*
X4754885Y-1581909D01*
X4342105Y-1465742D01*
X3908341Y-1415204D01*
X3423464Y-1424579D01*
X2988627Y-1501918D01*
X2605551Y-1645492D01*
X2275957Y-1853567D01*
X2001564Y-2124414D01*
X1784092Y-2456301D01*
X1625262Y-2847497D01*
X1526793Y-3296270D01*
X1490407Y-3800890D01*
X1490236Y-3848771D01*
X5360Y-3848771D01*
X5360Y-2396D01*
X7510869Y-2396D01*
G37*
G36*
X2276928Y-42817619D02*
G01*
X2365803Y-42898479D01*
X2486829Y-43018799D01*
X2627750Y-43166755D01*
X2650100Y-43190876D01*
X3021995Y-43593714D01*
X1431229Y-43593714D01*
X1554923Y-43455901D01*
X1728849Y-43266045D01*
X1892348Y-43094769D01*
X2035124Y-42952224D01*
X2146879Y-42848561D01*
X2217315Y-42793928D01*
X2232460Y-42788038D01*
X2276928Y-42817619D01*
G37*
%TD*%
D10*
%TO.C,H2*%
X7500000Y-125500000D03*
%TD*%
%TO.C,H1*%
X7500000Y-3000000D03*
%TD*%
M02*
