%TF.GenerationSoftware,KiCad,Pcbnew,(6.0.10-0)*%
%TF.CreationDate,2023-01-30T15:13:09+10:30*%
%TF.ProjectId,BLE_Module,424c455f-4d6f-4647-956c-652e6b696361,rev?*%
%TF.SameCoordinates,Original*%
%TF.FileFunction,Soldermask,Bot*%
%TF.FilePolarity,Negative*%
%FSLAX46Y46*%
G04 Gerber Fmt 4.6, Leading zero omitted, Abs format (unit mm)*
G04 Created by KiCad (PCBNEW (6.0.10-0)) date 2023-01-30 15:13:09*
%MOMM*%
%LPD*%
G01*
G04 APERTURE LIST*
G04 Aperture macros list*
%AMFreePoly0*
4,1,25,0.375350,0.844196,0.387473,0.833842,0.833842,0.387473,0.862349,0.331525,0.863600,0.315631,0.863600,-0.315631,0.844196,-0.375350,0.833842,-0.387473,0.387473,-0.833842,0.331525,-0.862349,0.315631,-0.863600,-0.315631,-0.863600,-0.375350,-0.844196,-0.387473,-0.833842,-0.833842,-0.387473,-0.862349,-0.331525,-0.863600,-0.315631,-0.863600,0.315631,-0.844196,0.375350,-0.833842,0.387473,
-0.387473,0.833842,-0.331525,0.862349,-0.315631,0.863600,0.315631,0.863600,0.375350,0.844196,0.375350,0.844196,$1*%
G04 Aperture macros list end*
%ADD10R,1.700000X1.700000*%
%ADD11O,1.700000X1.700000*%
%ADD12R,1.530000X1.530000*%
%ADD13C,1.530000*%
%ADD14FreePoly0,180.000000*%
%ADD15R,1.905000X2.000000*%
%ADD16O,1.905000X2.000000*%
G04 APERTURE END LIST*
D10*
%TO.C,J1*%
X8270000Y-1880000D03*
D11*
X10810000Y-1880000D03*
X13350000Y-1880000D03*
X15890000Y-1880000D03*
X18430000Y-1880000D03*
X20970000Y-1880000D03*
X23510000Y-1880000D03*
X26050000Y-1880000D03*
%TD*%
D10*
%TO.C,J2*%
X8270000Y-104115000D03*
D11*
X10810000Y-104115000D03*
X13350000Y-104115000D03*
X15890000Y-104115000D03*
X18430000Y-104115000D03*
X20970000Y-104115000D03*
X23510000Y-104115000D03*
X26050000Y-104115000D03*
%TD*%
D12*
%TO.C,U1*%
X4445000Y-52695000D03*
D13*
X4445000Y-50155000D03*
X4445000Y-47615000D03*
X4445000Y-45075000D03*
X4445000Y-42535000D03*
X4445000Y-39995000D03*
X4445000Y-37455000D03*
X4445000Y-34915000D03*
X4445000Y-32375000D03*
X4445000Y-29835000D03*
X4445000Y-27295000D03*
X4445000Y-24755000D03*
X4445000Y-22215000D03*
X4445000Y-19675000D03*
X4445000Y-17135000D03*
X4445000Y-14595000D03*
X4445000Y-12055000D03*
X4445000Y-9515000D03*
X4445000Y-6975000D03*
X29845000Y-6975000D03*
X29845000Y-9515000D03*
X29845000Y-12055000D03*
X29845000Y-14595000D03*
X29845000Y-17135000D03*
X29845000Y-19675000D03*
X29845000Y-22215000D03*
X29845000Y-24755000D03*
X29845000Y-27295000D03*
X29845000Y-29835000D03*
X29845000Y-32375000D03*
X29845000Y-34915000D03*
X29845000Y-37455000D03*
X29845000Y-39995000D03*
X29845000Y-42535000D03*
X29845000Y-45075000D03*
X29845000Y-47615000D03*
X29845000Y-50155000D03*
X29845000Y-52695000D03*
%TD*%
D14*
%TO.C,CON1*%
X22225000Y-99695000D03*
X22225000Y-97155000D03*
X19685000Y-99695000D03*
X19685000Y-97155000D03*
X17145000Y-99695000D03*
X17145000Y-97155000D03*
X14605000Y-99695000D03*
X14605000Y-97155000D03*
X12065000Y-99695000D03*
X12065000Y-97155000D03*
%TD*%
D15*
%TO.C,U5*%
X19955000Y-87760000D03*
D16*
X17415000Y-87760000D03*
X14875000Y-87760000D03*
%TD*%
M02*
