M48
; DRILL file {KiCad (6.0.10-0)} date Monday, 30 January 2023 at 03:13:17 pm
; FORMAT={-:-/ absolute / inch / decimal}
; #@! TF.CreationDate,2023-01-30T15:13:17+10:30
; #@! TF.GenerationSoftware,Kicad,Pcbnew,(6.0.10-0)
; #@! TF.FileFunction,Plated,1,2,PTH
FMAT,2
INCH
; #@! TA.AperFunction,Plated,PTH,ViaDrill
T1C0.0157
; #@! TA.AperFunction,Plated,PTH,ComponentDrill
T2C0.0394
; #@! TA.AperFunction,Plated,PTH,ComponentDrill
T3C0.0400
; #@! TA.AperFunction,Plated,PTH,ComponentDrill
T4C0.0402
; #@! TA.AperFunction,Plated,PTH,ComponentDrill
T5C0.0433
%
G90
G05
T1
X0.275Y-0.45
X0.3Y-0.675
X0.3Y-2.9
X0.3Y-3.275
X0.35Y-0.2
X0.425Y-1.2
X0.425Y-3.725
X0.45Y-0.85
X0.45Y-2.675
X0.45Y-2.85
X0.5Y-0.475
X0.55Y-1.7
X0.6434Y-1.7908
X0.6663Y-2.1311
X0.675Y-1.0
X0.7085Y-1.6335
X0.7085Y-2.2585
X0.775Y-1.4
X0.775Y-2.2
X0.825Y-1.45
X0.825Y-1.75
X0.8478Y-1.9439
X0.85Y-1.15
X0.875Y-2.425
X0.875Y-2.925
X0.975Y-1.15
X1.0Y-1.225
X1.025Y-2.825
X1.05Y-2.55
X1.15Y-2.975
X1.25Y-3.275
T2
X0.3256Y-0.074
X0.3256Y-4.099
X0.4256Y-0.074
X0.4256Y-4.099
X0.5256Y-0.074
X0.5256Y-4.099
X0.6256Y-0.074
X0.6256Y-4.099
X0.7256Y-0.074
X0.7256Y-4.099
X0.8256Y-0.074
X0.8256Y-4.099
X0.9256Y-0.074
X0.9256Y-4.099
X1.0256Y-0.074
X1.0256Y-4.099
T3
X0.475Y-3.825
X0.475Y-3.925
X0.575Y-3.825
X0.575Y-3.925
X0.675Y-3.825
X0.675Y-3.925
X0.775Y-3.825
X0.775Y-3.925
X0.875Y-3.825
X0.875Y-3.925
T4
X0.175Y-0.2746
X0.175Y-0.3746
X0.175Y-0.4746
X0.175Y-0.5746
X0.175Y-0.6746
X0.175Y-0.7746
X0.175Y-0.8746
X0.175Y-0.9746
X0.175Y-1.0746
X0.175Y-1.1746
X0.175Y-1.2746
X0.175Y-1.3746
X0.175Y-1.4746
X0.175Y-1.5746
X0.175Y-1.6746
X0.175Y-1.7746
X0.175Y-1.8746
X0.175Y-1.9746
X0.175Y-2.0746
X1.175Y-0.2746
X1.175Y-0.3746
X1.175Y-0.4746
X1.175Y-0.5746
X1.175Y-0.6746
X1.175Y-0.7746
X1.175Y-0.8746
X1.175Y-0.9746
X1.175Y-1.0746
X1.175Y-1.1746
X1.175Y-1.2746
X1.175Y-1.3746
X1.175Y-1.4746
X1.175Y-1.5746
X1.175Y-1.6746
X1.175Y-1.7746
X1.175Y-1.8746
X1.175Y-1.9746
X1.175Y-2.0746
T5
X0.5856Y-3.4551
X0.6856Y-3.4551
X0.7856Y-3.4551
T0
M30
