%TF.GenerationSoftware,KiCad,Pcbnew,(6.0.10-0)*%
%TF.CreationDate,2023-01-30T15:13:09+10:30*%
%TF.ProjectId,BLE_Module,424c455f-4d6f-4647-956c-652e6b696361,rev?*%
%TF.SameCoordinates,Original*%
%TF.FileFunction,Soldermask,Top*%
%TF.FilePolarity,Negative*%
%FSLAX46Y46*%
G04 Gerber Fmt 4.6, Leading zero omitted, Abs format (unit mm)*
G04 Created by KiCad (PCBNEW (6.0.10-0)) date 2023-01-30 15:13:09*
%MOMM*%
%LPD*%
G01*
G04 APERTURE LIST*
G04 Aperture macros list*
%AMRoundRect*
0 Rectangle with rounded corners*
0 $1 Rounding radius*
0 $2 $3 $4 $5 $6 $7 $8 $9 X,Y pos of 4 corners*
0 Add a 4 corners polygon primitive as box body*
4,1,4,$2,$3,$4,$5,$6,$7,$8,$9,$2,$3,0*
0 Add four circle primitives for the rounded corners*
1,1,$1+$1,$2,$3*
1,1,$1+$1,$4,$5*
1,1,$1+$1,$6,$7*
1,1,$1+$1,$8,$9*
0 Add four rect primitives between the rounded corners*
20,1,$1+$1,$2,$3,$4,$5,0*
20,1,$1+$1,$4,$5,$6,$7,0*
20,1,$1+$1,$6,$7,$8,$9,0*
20,1,$1+$1,$8,$9,$2,$3,0*%
%AMFreePoly0*
4,1,25,0.375350,0.844196,0.387473,0.833842,0.833842,0.387473,0.862349,0.331525,0.863600,0.315631,0.863600,-0.315631,0.844196,-0.375350,0.833842,-0.387473,0.387473,-0.833842,0.331525,-0.862349,0.315631,-0.863600,-0.315631,-0.863600,-0.375350,-0.844196,-0.387473,-0.833842,-0.833842,-0.387473,-0.862349,-0.331525,-0.863600,-0.315631,-0.863600,0.315631,-0.844196,0.375350,-0.833842,0.387473,
-0.387473,0.833842,-0.331525,0.862349,-0.315631,0.863600,0.315631,0.863600,0.375350,0.844196,0.375350,0.844196,$1*%
G04 Aperture macros list end*
%ADD10R,1.700000X1.700000*%
%ADD11O,1.700000X1.700000*%
%ADD12RoundRect,0.250000X-0.450000X0.350000X-0.450000X-0.350000X0.450000X-0.350000X0.450000X0.350000X0*%
%ADD13RoundRect,0.250000X0.350000X0.450000X-0.350000X0.450000X-0.350000X-0.450000X0.350000X-0.450000X0*%
%ADD14R,2.500000X1.600000*%
%ADD15RoundRect,0.250000X0.450000X-0.350000X0.450000X0.350000X-0.450000X0.350000X-0.450000X-0.350000X0*%
%ADD16RoundRect,0.042000X-0.908000X-0.258000X0.908000X-0.258000X0.908000X0.258000X-0.908000X0.258000X0*%
%ADD17RoundRect,0.150000X-0.825000X-0.150000X0.825000X-0.150000X0.825000X0.150000X-0.825000X0.150000X0*%
%ADD18RoundRect,0.250000X0.337500X0.475000X-0.337500X0.475000X-0.337500X-0.475000X0.337500X-0.475000X0*%
%ADD19RoundRect,0.042000X-0.943000X-0.258000X0.943000X-0.258000X0.943000X0.258000X-0.943000X0.258000X0*%
%ADD20RoundRect,0.250000X-0.337500X-0.475000X0.337500X-0.475000X0.337500X0.475000X-0.337500X0.475000X0*%
%ADD21R,1.530000X1.530000*%
%ADD22C,1.530000*%
%ADD23FreePoly0,180.000000*%
%ADD24R,1.905000X2.000000*%
%ADD25O,1.905000X2.000000*%
G04 APERTURE END LIST*
D10*
%TO.C,J1*%
X8270000Y-1880000D03*
D11*
X10810000Y-1880000D03*
X13350000Y-1880000D03*
X15890000Y-1880000D03*
X18430000Y-1880000D03*
X20970000Y-1880000D03*
X23510000Y-1880000D03*
X26050000Y-1880000D03*
%TD*%
D12*
%TO.C,R6*%
X10525000Y-63770000D03*
X10525000Y-65770000D03*
%TD*%
D13*
%TO.C,R18*%
X11795000Y-7045000D03*
X9795000Y-7045000D03*
%TD*%
D14*
%TO.C,C3*%
X25105000Y-86995000D03*
X28605000Y-86995000D03*
%TD*%
D15*
%TO.C,R7*%
X29200000Y-80150872D03*
X29200000Y-78150872D03*
%TD*%
D16*
%TO.C,U2*%
X14690000Y-26670000D03*
X14690000Y-27940000D03*
X14690000Y-29210000D03*
X14690000Y-30480000D03*
X14690000Y-31750000D03*
X14690000Y-33020000D03*
X14690000Y-34290000D03*
X19600000Y-34290000D03*
X19600000Y-33020000D03*
X19600000Y-31750000D03*
X19600000Y-30480000D03*
X19600000Y-29210000D03*
X19600000Y-27940000D03*
X19600000Y-26670000D03*
%TD*%
D15*
%TO.C,R4*%
X5715000Y-65770000D03*
X5715000Y-63770000D03*
%TD*%
D17*
%TO.C,U6*%
X14670000Y-64135000D03*
X14670000Y-65405000D03*
X14670000Y-66675000D03*
X14670000Y-67945000D03*
X19620000Y-67945000D03*
X19620000Y-66675000D03*
X19620000Y-65405000D03*
X19620000Y-64135000D03*
%TD*%
D18*
%TO.C,C2*%
X18182500Y-43250000D03*
X16107500Y-43250000D03*
%TD*%
D15*
%TO.C,R5*%
X24120000Y-67040000D03*
X24120000Y-65040000D03*
%TD*%
D17*
%TO.C,U7*%
X14670000Y-76835000D03*
X14670000Y-78105000D03*
X14670000Y-79375000D03*
X14670000Y-80645000D03*
X19620000Y-80645000D03*
X19620000Y-79375000D03*
X19620000Y-78105000D03*
X19620000Y-76835000D03*
%TD*%
D16*
%TO.C,U3*%
X14690000Y-47060000D03*
X14690000Y-48330000D03*
X14690000Y-49600000D03*
X14690000Y-50870000D03*
X14690000Y-52140000D03*
X14690000Y-53410000D03*
X14690000Y-54680000D03*
X19600000Y-54680000D03*
X19600000Y-53410000D03*
X19600000Y-52140000D03*
X19600000Y-50870000D03*
X19600000Y-49600000D03*
X19600000Y-48330000D03*
X19600000Y-47060000D03*
%TD*%
D18*
%TO.C,C5*%
X18182500Y-59690000D03*
X16107500Y-59690000D03*
%TD*%
%TO.C,C10*%
X17921248Y-72280000D03*
X15846248Y-72280000D03*
%TD*%
D14*
%TO.C,C8*%
X9725000Y-86995000D03*
X6225000Y-86995000D03*
%TD*%
D19*
%TO.C,U13*%
X14675000Y-7055000D03*
X14675000Y-8325000D03*
X14675000Y-9595000D03*
X14675000Y-10865000D03*
X19615000Y-10865000D03*
X19615000Y-9595000D03*
X19615000Y-8325000D03*
X19615000Y-7055000D03*
%TD*%
D14*
%TO.C,C9*%
X15395000Y-39440000D03*
X18895000Y-39440000D03*
%TD*%
%TO.C,C4*%
X15395000Y-17850000D03*
X18895000Y-17850000D03*
%TD*%
D18*
%TO.C,C7*%
X11102500Y-92075000D03*
X9027500Y-92075000D03*
%TD*%
D10*
%TO.C,J2*%
X8270000Y-104115000D03*
D11*
X10810000Y-104115000D03*
X13350000Y-104115000D03*
X15890000Y-104115000D03*
X18430000Y-104115000D03*
X20970000Y-104115000D03*
X23510000Y-104115000D03*
X26050000Y-104115000D03*
%TD*%
D15*
%TO.C,R9*%
X24120000Y-80000872D03*
X24120000Y-78000872D03*
%TD*%
%TO.C,R8*%
X5715000Y-78470000D03*
X5715000Y-76470000D03*
%TD*%
D12*
%TO.C,R10*%
X10525000Y-76470000D03*
X10525000Y-78470000D03*
%TD*%
D18*
%TO.C,C1*%
X18182500Y-22910000D03*
X16107500Y-22910000D03*
%TD*%
D15*
%TO.C,R3*%
X29200000Y-67040000D03*
X29200000Y-65040000D03*
%TD*%
D20*
%TO.C,C6*%
X23727500Y-92085000D03*
X25802500Y-92085000D03*
%TD*%
D21*
%TO.C,U1*%
X4445000Y-52695000D03*
D22*
X4445000Y-50155000D03*
X4445000Y-47615000D03*
X4445000Y-45075000D03*
X4445000Y-42535000D03*
X4445000Y-39995000D03*
X4445000Y-37455000D03*
X4445000Y-34915000D03*
X4445000Y-32375000D03*
X4445000Y-29835000D03*
X4445000Y-27295000D03*
X4445000Y-24755000D03*
X4445000Y-22215000D03*
X4445000Y-19675000D03*
X4445000Y-17135000D03*
X4445000Y-14595000D03*
X4445000Y-12055000D03*
X4445000Y-9515000D03*
X4445000Y-6975000D03*
X29845000Y-6975000D03*
X29845000Y-9515000D03*
X29845000Y-12055000D03*
X29845000Y-14595000D03*
X29845000Y-17135000D03*
X29845000Y-19675000D03*
X29845000Y-22215000D03*
X29845000Y-24755000D03*
X29845000Y-27295000D03*
X29845000Y-29835000D03*
X29845000Y-32375000D03*
X29845000Y-34915000D03*
X29845000Y-37455000D03*
X29845000Y-39995000D03*
X29845000Y-42535000D03*
X29845000Y-45075000D03*
X29845000Y-47615000D03*
X29845000Y-50155000D03*
X29845000Y-52695000D03*
%TD*%
D23*
%TO.C,CON1*%
X22225000Y-99695000D03*
X22225000Y-97155000D03*
X19685000Y-99695000D03*
X19685000Y-97155000D03*
X17145000Y-99695000D03*
X17145000Y-97155000D03*
X14605000Y-99695000D03*
X14605000Y-97155000D03*
X12065000Y-99695000D03*
X12065000Y-97155000D03*
%TD*%
D24*
%TO.C,U5*%
X19955000Y-87760000D03*
D25*
X17415000Y-87760000D03*
X14875000Y-87760000D03*
%TD*%
M02*
