%TF.GenerationSoftware,KiCad,Pcbnew,(6.0.10-0)*%
%TF.CreationDate,2023-01-30T15:13:09+10:30*%
%TF.ProjectId,BLE_Module,424c455f-4d6f-4647-956c-652e6b696361,rev?*%
%TF.SameCoordinates,Original*%
%TF.FileFunction,Copper,L2,Bot*%
%TF.FilePolarity,Positive*%
%FSLAX46Y46*%
G04 Gerber Fmt 4.6, Leading zero omitted, Abs format (unit mm)*
G04 Created by KiCad (PCBNEW (6.0.10-0)) date 2023-01-30 15:13:09*
%MOMM*%
%LPD*%
G01*
G04 APERTURE LIST*
G04 Aperture macros list*
%AMOutline5P*
0 Free polygon, 5 corners , with rotation*
0 The origin of the aperture is its center*
0 number of corners: always 5*
0 $1 to $10 corner X, Y*
0 $11 Rotation angle, in degrees counterclockwise*
0 create outline with 5 corners*
4,1,5,$1,$2,$3,$4,$5,$6,$7,$8,$9,$10,$1,$2,$11*%
%AMOutline6P*
0 Free polygon, 6 corners , with rotation*
0 The origin of the aperture is its center*
0 number of corners: always 6*
0 $1 to $12 corner X, Y*
0 $13 Rotation angle, in degrees counterclockwise*
0 create outline with 6 corners*
4,1,6,$1,$2,$3,$4,$5,$6,$7,$8,$9,$10,$11,$12,$1,$2,$13*%
%AMOutline7P*
0 Free polygon, 7 corners , with rotation*
0 The origin of the aperture is its center*
0 number of corners: always 7*
0 $1 to $14 corner X, Y*
0 $15 Rotation angle, in degrees counterclockwise*
0 create outline with 7 corners*
4,1,7,$1,$2,$3,$4,$5,$6,$7,$8,$9,$10,$11,$12,$13,$14,$1,$2,$15*%
%AMOutline8P*
0 Free polygon, 8 corners , with rotation*
0 The origin of the aperture is its center*
0 number of corners: always 8*
0 $1 to $16 corner X, Y*
0 $17 Rotation angle, in degrees counterclockwise*
0 create outline with 8 corners*
4,1,8,$1,$2,$3,$4,$5,$6,$7,$8,$9,$10,$11,$12,$13,$14,$15,$16,$1,$2,$17*%
G04 Aperture macros list end*
%TA.AperFunction,ComponentPad*%
%ADD10R,1.700000X1.700000*%
%TD*%
%TA.AperFunction,ComponentPad*%
%ADD11O,1.700000X1.700000*%
%TD*%
%TA.AperFunction,ComponentPad*%
%ADD12R,1.530000X1.530000*%
%TD*%
%TA.AperFunction,ComponentPad*%
%ADD13C,1.530000*%
%TD*%
%TA.AperFunction,ComponentPad*%
%ADD14Outline8P,-0.762000X0.315631X-0.315631X0.762000X0.315631X0.762000X0.762000X0.315631X0.762000X-0.315631X0.315631X-0.762000X-0.315631X-0.762000X-0.762000X-0.315631X180.000000*%
%TD*%
%TA.AperFunction,ComponentPad*%
%ADD15R,1.905000X2.000000*%
%TD*%
%TA.AperFunction,ComponentPad*%
%ADD16O,1.905000X2.000000*%
%TD*%
%TA.AperFunction,ViaPad*%
%ADD17C,0.800000*%
%TD*%
%TA.AperFunction,Conductor*%
%ADD18C,0.250000*%
%TD*%
%TA.AperFunction,Conductor*%
%ADD19C,0.500000*%
%TD*%
G04 APERTURE END LIST*
D10*
%TO.P,J1,1,Pin_1*%
%TO.N,+5V*%
X8270000Y-1880000D03*
D11*
%TO.P,J1,2,Pin_2*%
%TO.N,GND*%
X10810000Y-1880000D03*
%TO.P,J1,3,Pin_3*%
%TO.N,/LED1*%
X13350000Y-1880000D03*
%TO.P,J1,4,Pin_4*%
%TO.N,/LED2*%
X15890000Y-1880000D03*
%TO.P,J1,5,Pin_5*%
%TO.N,/GATE1*%
X18430000Y-1880000D03*
%TO.P,J1,6,Pin_6*%
%TO.N,/GATE2*%
X20970000Y-1880000D03*
%TO.P,J1,7,Pin_7*%
%TO.N,GND*%
X23510000Y-1880000D03*
%TO.P,J1,8,Pin_8*%
X26050000Y-1880000D03*
%TD*%
D10*
%TO.P,J2,1,Pin_1*%
%TO.N,GND*%
X8270000Y-104115000D03*
D11*
%TO.P,J2,2,Pin_2*%
X10810000Y-104115000D03*
%TO.P,J2,3,Pin_3*%
%TO.N,/CV1*%
X13350000Y-104115000D03*
%TO.P,J2,4,Pin_4*%
%TO.N,/CV2*%
X15890000Y-104115000D03*
%TO.P,J2,5,Pin_5*%
%TO.N,/CV3*%
X18430000Y-104115000D03*
%TO.P,J2,6,Pin_6*%
%TO.N,/CV4*%
X20970000Y-104115000D03*
%TO.P,J2,7,Pin_7*%
%TO.N,GND*%
X23510000Y-104115000D03*
%TO.P,J2,8,Pin_8*%
X26050000Y-104115000D03*
%TD*%
D12*
%TO.P,U1,1,3V3*%
%TO.N,unconnected-(U1-Pad1)*%
X4445000Y-52695000D03*
D13*
%TO.P,U1,2,EN*%
%TO.N,unconnected-(U1-Pad2)*%
X4445000Y-50155000D03*
%TO.P,U1,3,SENSOR_VP*%
%TO.N,unconnected-(U1-Pad3)*%
X4445000Y-47615000D03*
%TO.P,U1,4,SENSOR_VN*%
%TO.N,unconnected-(U1-Pad4)*%
X4445000Y-45075000D03*
%TO.P,U1,5,IO34*%
%TO.N,unconnected-(U1-Pad5)*%
X4445000Y-42535000D03*
%TO.P,U1,6,IO35*%
%TO.N,unconnected-(U1-Pad6)*%
X4445000Y-39995000D03*
%TO.P,U1,7,IO32*%
%TO.N,/CS2*%
X4445000Y-37455000D03*
%TO.P,U1,8,IO33*%
%TO.N,unconnected-(U1-Pad8)*%
X4445000Y-34915000D03*
%TO.P,U1,9,IO25*%
%TO.N,unconnected-(U1-Pad9)*%
X4445000Y-32375000D03*
%TO.P,U1,10,IO26*%
%TO.N,/CS1*%
X4445000Y-29835000D03*
%TO.P,U1,11,IO27*%
%TO.N,unconnected-(U1-Pad11)*%
X4445000Y-27295000D03*
%TO.P,U1,12,IO14*%
%TO.N,unconnected-(U1-Pad12)*%
X4445000Y-24755000D03*
%TO.P,U1,13,IO12*%
%TO.N,/LED2*%
X4445000Y-22215000D03*
%TO.P,U1,14,GND1*%
%TO.N,GND*%
X4445000Y-19675000D03*
%TO.P,U1,15,IO13*%
%TO.N,/LED1*%
X4445000Y-17135000D03*
%TO.P,U1,16,SD2*%
%TO.N,unconnected-(U1-Pad16)*%
X4445000Y-14595000D03*
%TO.P,U1,17,SD3*%
%TO.N,unconnected-(U1-Pad17)*%
X4445000Y-12055000D03*
%TO.P,U1,18,CMD*%
%TO.N,unconnected-(U1-Pad18)*%
X4445000Y-9515000D03*
%TO.P,U1,19,EXT_5V*%
%TO.N,+5V*%
X4445000Y-6975000D03*
%TO.P,U1,20,CLK*%
%TO.N,unconnected-(U1-Pad20)*%
X29845000Y-6975000D03*
%TO.P,U1,21,SD0*%
%TO.N,unconnected-(U1-Pad21)*%
X29845000Y-9515000D03*
%TO.P,U1,22,SD1*%
%TO.N,unconnected-(U1-Pad22)*%
X29845000Y-12055000D03*
%TO.P,U1,23,IO15*%
%TO.N,/GATE2*%
X29845000Y-14595000D03*
%TO.P,U1,24,IO2*%
%TO.N,/GATE1*%
X29845000Y-17135000D03*
%TO.P,U1,25,IO0*%
%TO.N,unconnected-(U1-Pad25)*%
X29845000Y-19675000D03*
%TO.P,U1,26,IO4*%
%TO.N,unconnected-(U1-Pad26)*%
X29845000Y-22215000D03*
%TO.P,U1,27,IO16*%
%TO.N,unconnected-(U1-Pad27)*%
X29845000Y-24755000D03*
%TO.P,U1,28,IO17*%
%TO.N,unconnected-(U1-Pad28)*%
X29845000Y-27295000D03*
%TO.P,U1,29,IO5*%
%TO.N,unconnected-(U1-Pad29)*%
X29845000Y-29835000D03*
%TO.P,U1,30,IO18*%
%TO.N,/SCK*%
X29845000Y-32375000D03*
%TO.P,U1,31,IO19*%
%TO.N,unconnected-(U1-Pad31)*%
X29845000Y-34915000D03*
%TO.P,U1,32,GND2*%
%TO.N,GND*%
X29845000Y-37455000D03*
%TO.P,U1,33,IO21*%
%TO.N,unconnected-(U1-Pad33)*%
X29845000Y-39995000D03*
%TO.P,U1,34,RXD0*%
%TO.N,unconnected-(U1-Pad34)*%
X29845000Y-42535000D03*
%TO.P,U1,35,TXD0*%
%TO.N,unconnected-(U1-Pad35)*%
X29845000Y-45075000D03*
%TO.P,U1,36,IO22*%
%TO.N,unconnected-(U1-Pad36)*%
X29845000Y-47615000D03*
%TO.P,U1,37,IO23*%
%TO.N,/MOSI*%
X29845000Y-50155000D03*
%TO.P,U1,38,GND3*%
%TO.N,GND*%
X29845000Y-52695000D03*
%TD*%
D14*
%TO.P,CON1,1*%
%TO.N,-12V*%
X22225000Y-99695000D03*
%TO.P,CON1,2*%
X22225000Y-97155000D03*
%TO.P,CON1,3*%
%TO.N,GND*%
X19685000Y-99695000D03*
%TO.P,CON1,4*%
X19685000Y-97155000D03*
%TO.P,CON1,5*%
X17145000Y-99695000D03*
%TO.P,CON1,6*%
X17145000Y-97155000D03*
%TO.P,CON1,7*%
X14605000Y-99695000D03*
%TO.P,CON1,8*%
X14605000Y-97155000D03*
%TO.P,CON1,9*%
%TO.N,+12V*%
X12065000Y-99695000D03*
%TO.P,CON1,10*%
X12065000Y-97155000D03*
%TD*%
D15*
%TO.P,U5,1,VI*%
%TO.N,+12V*%
X19955000Y-87760000D03*
D16*
%TO.P,U5,2,GND*%
%TO.N,GND*%
X17415000Y-87760000D03*
%TO.P,U5,3,VO*%
%TO.N,+5V*%
X14875000Y-87760000D03*
%TD*%
D17*
%TO.N,GND*%
X16923808Y-54129761D03*
X12700000Y-12065000D03*
X26035000Y-71755000D03*
X20955000Y-44450000D03*
X24765000Y-29210000D03*
X21533551Y-49374485D03*
X25400000Y-31115000D03*
X26670000Y-64770000D03*
X19685000Y-55880000D03*
X8890000Y-5080000D03*
X11430000Y-72390000D03*
X7620000Y-83185000D03*
X7620000Y-73660000D03*
X6985000Y-11430000D03*
X21590000Y-29210000D03*
X10795000Y-94615000D03*
X11430000Y-67945000D03*
X19685000Y-35560000D03*
X16342403Y-45487460D03*
X7620000Y-17145000D03*
%TO.N,+12V*%
X22225000Y-61595000D03*
X22225000Y-74295000D03*
%TO.N,+5V*%
X17995000Y-41490000D03*
X11430000Y-21590000D03*
X17995000Y-57365000D03*
%TO.N,/SCK*%
X20955000Y-36830000D03*
%TO.N,/CV4*%
X29210000Y-75565000D03*
X31750000Y-83185000D03*
%TO.N,/CS2*%
X13970000Y-43180000D03*
%TO.N,Net-(U2-Pad14)*%
X17145000Y-25400000D03*
X10795000Y-30480000D03*
%TD*%
D18*
%TO.N,/CS2*%
X13335000Y-41275000D02*
X8265000Y-41275000D01*
X8265000Y-41275000D02*
X4445000Y-37455000D01*
%TO.N,GND*%
X20955000Y-35560000D02*
X25400000Y-31115000D01*
X12065000Y-94615000D02*
X14605000Y-97155000D01*
X11430000Y-72390000D02*
X11430000Y-67945000D01*
X16923808Y-46068865D02*
X16342403Y-45487460D01*
X19685000Y-55880000D02*
X26660000Y-55880000D01*
X21590000Y-29210000D02*
X24765000Y-29210000D01*
X7620000Y-73660000D02*
X7620000Y-83185000D01*
X19685000Y-35560000D02*
X20955000Y-35560000D01*
X26670000Y-64770000D02*
X26670000Y-71120000D01*
X7620000Y-17145000D02*
X12700000Y-12065000D01*
X21533551Y-45028551D02*
X20955000Y-44450000D01*
X11445000Y-104115000D02*
X11445000Y-102855000D01*
X10795000Y-94615000D02*
X12065000Y-94615000D01*
X11445000Y-102855000D02*
X14605000Y-99695000D01*
X6985000Y-6985000D02*
X6985000Y-11430000D01*
X26670000Y-71120000D02*
X26035000Y-71755000D01*
X16923808Y-54129761D02*
X16923808Y-46068865D01*
X26660000Y-55880000D02*
X29845000Y-52695000D01*
X21533551Y-49374485D02*
X21533551Y-45028551D01*
X8890000Y-5080000D02*
X6985000Y-6985000D01*
%TO.N,+12V*%
X19955000Y-86725000D02*
X22225000Y-84455000D01*
X22225000Y-84455000D02*
X22225000Y-74295000D01*
X22225000Y-74295000D02*
X22225000Y-61595000D01*
X19955000Y-87760000D02*
X19955000Y-86725000D01*
D19*
%TO.N,+5V*%
X11430000Y-21590000D02*
X14360305Y-21590000D01*
X17870000Y-24130000D02*
X17995000Y-24255000D01*
X16900305Y-24130000D02*
X17870000Y-24130000D01*
X17995000Y-57365000D02*
X17995000Y-84640000D01*
X17995000Y-24255000D02*
X17995000Y-41490000D01*
X14360305Y-21590000D02*
X16900305Y-24130000D01*
X17995000Y-41490000D02*
X17995000Y-57365000D01*
X17870000Y-84765000D02*
X14875000Y-87760000D01*
X17995000Y-84640000D02*
X17870000Y-84765000D01*
D18*
%TO.N,/LED2*%
X15890000Y-10770000D02*
X15890000Y-1880000D01*
X4445000Y-22215000D02*
X15890000Y-10770000D01*
%TO.N,/LED1*%
X13350000Y-8230000D02*
X13350000Y-1880000D01*
X4445000Y-17135000D02*
X13350000Y-8230000D01*
%TO.N,/SCK*%
X25410000Y-32375000D02*
X29845000Y-32375000D01*
X20955000Y-36830000D02*
X25410000Y-32375000D01*
%TO.N,/CV4*%
X31750000Y-78105000D02*
X29210000Y-75565000D01*
X31750000Y-83185000D02*
X31750000Y-78105000D01*
%TO.N,/CS2*%
X13970000Y-43180000D02*
X13970000Y-41910000D01*
X13970000Y-41910000D02*
X13335000Y-41275000D01*
%TO.N,Net-(U2-Pad14)*%
X10795000Y-30480000D02*
X10795000Y-27305000D01*
X17145000Y-25400000D02*
X12700000Y-25400000D01*
X10795000Y-27305000D02*
X12700000Y-25400000D01*
%TD*%
M02*
