%TF.GenerationSoftware,KiCad,Pcbnew,(6.0.10-0)*%
%TF.CreationDate,2023-01-16T20:28:56+10:30*%
%TF.ProjectId,BLE_Module_Front_Board,424c455f-4d6f-4647-956c-655f46726f6e,rev?*%
%TF.SameCoordinates,Original*%
%TF.FileFunction,Legend,Top*%
%TF.FilePolarity,Positive*%
%FSLAX46Y46*%
G04 Gerber Fmt 4.6, Leading zero omitted, Abs format (unit mm)*
G04 Created by KiCad (PCBNEW (6.0.10-0)) date 2023-01-16 20:28:56*
%MOMM*%
%LPD*%
G01*
G04 APERTURE LIST*
%ADD10C,0.080000*%
%ADD11C,0.150000*%
%ADD12C,0.127000*%
%ADD13C,0.120000*%
G04 APERTURE END LIST*
D10*
%TO.C,P6*%
X25046047Y-92801190D02*
X25046047Y-91881190D01*
X25396523Y-91881190D01*
X25484142Y-91925000D01*
X25527952Y-91968809D01*
X25571761Y-92056428D01*
X25571761Y-92187857D01*
X25527952Y-92275476D01*
X25484142Y-92319285D01*
X25396523Y-92363095D01*
X25046047Y-92363095D01*
X26360333Y-91881190D02*
X26185095Y-91881190D01*
X26097476Y-91925000D01*
X26053666Y-91968809D01*
X25966047Y-92100238D01*
X25922238Y-92275476D01*
X25922238Y-92625952D01*
X25966047Y-92713571D01*
X26009857Y-92757380D01*
X26097476Y-92801190D01*
X26272714Y-92801190D01*
X26360333Y-92757380D01*
X26404142Y-92713571D01*
X26447952Y-92625952D01*
X26447952Y-92406904D01*
X26404142Y-92319285D01*
X26360333Y-92275476D01*
X26272714Y-92231666D01*
X26097476Y-92231666D01*
X26009857Y-92275476D01*
X25966047Y-92319285D01*
X25922238Y-92406904D01*
D11*
%TO.C,C1*%
X18883333Y-15372142D02*
X18835714Y-15419761D01*
X18692857Y-15467380D01*
X18597619Y-15467380D01*
X18454761Y-15419761D01*
X18359523Y-15324523D01*
X18311904Y-15229285D01*
X18264285Y-15038809D01*
X18264285Y-14895952D01*
X18311904Y-14705476D01*
X18359523Y-14610238D01*
X18454761Y-14515000D01*
X18597619Y-14467380D01*
X18692857Y-14467380D01*
X18835714Y-14515000D01*
X18883333Y-14562619D01*
X19835714Y-15467380D02*
X19264285Y-15467380D01*
X19550000Y-15467380D02*
X19550000Y-14467380D01*
X19454761Y-14610238D01*
X19359523Y-14705476D01*
X19264285Y-14753095D01*
D10*
%TO.C,P3*%
X25046047Y-48986190D02*
X25046047Y-48066190D01*
X25396523Y-48066190D01*
X25484142Y-48110000D01*
X25527952Y-48153809D01*
X25571761Y-48241428D01*
X25571761Y-48372857D01*
X25527952Y-48460476D01*
X25484142Y-48504285D01*
X25396523Y-48548095D01*
X25046047Y-48548095D01*
X25878428Y-48066190D02*
X26447952Y-48066190D01*
X26141285Y-48416666D01*
X26272714Y-48416666D01*
X26360333Y-48460476D01*
X26404142Y-48504285D01*
X26447952Y-48591904D01*
X26447952Y-48810952D01*
X26404142Y-48898571D01*
X26360333Y-48942380D01*
X26272714Y-48986190D01*
X26009857Y-48986190D01*
X25922238Y-48942380D01*
X25878428Y-48898571D01*
D11*
%TO.C,R3*%
X25233333Y-10232380D02*
X24900000Y-9756190D01*
X24661904Y-10232380D02*
X24661904Y-9232380D01*
X25042857Y-9232380D01*
X25138095Y-9280000D01*
X25185714Y-9327619D01*
X25233333Y-9422857D01*
X25233333Y-9565714D01*
X25185714Y-9660952D01*
X25138095Y-9708571D01*
X25042857Y-9756190D01*
X24661904Y-9756190D01*
X25566666Y-9232380D02*
X26185714Y-9232380D01*
X25852380Y-9613333D01*
X25995238Y-9613333D01*
X26090476Y-9660952D01*
X26138095Y-9708571D01*
X26185714Y-9803809D01*
X26185714Y-10041904D01*
X26138095Y-10137142D01*
X26090476Y-10184761D01*
X25995238Y-10232380D01*
X25709523Y-10232380D01*
X25614285Y-10184761D01*
X25566666Y-10137142D01*
%TO.C,J2*%
X4952380Y-104448333D02*
X5666666Y-104448333D01*
X5809523Y-104495952D01*
X5904761Y-104591190D01*
X5952380Y-104734047D01*
X5952380Y-104829285D01*
X5047619Y-104019761D02*
X5000000Y-103972142D01*
X4952380Y-103876904D01*
X4952380Y-103638809D01*
X5000000Y-103543571D01*
X5047619Y-103495952D01*
X5142857Y-103448333D01*
X5238095Y-103448333D01*
X5380952Y-103495952D01*
X5952380Y-104067380D01*
X5952380Y-103448333D01*
%TO.C,R1*%
X18883333Y-23567380D02*
X18550000Y-23091190D01*
X18311904Y-23567380D02*
X18311904Y-22567380D01*
X18692857Y-22567380D01*
X18788095Y-22615000D01*
X18835714Y-22662619D01*
X18883333Y-22757857D01*
X18883333Y-22900714D01*
X18835714Y-22995952D01*
X18788095Y-23043571D01*
X18692857Y-23091190D01*
X18311904Y-23091190D01*
X19835714Y-23567380D02*
X19264285Y-23567380D01*
X19550000Y-23567380D02*
X19550000Y-22567380D01*
X19454761Y-22710238D01*
X19359523Y-22805476D01*
X19264285Y-22853095D01*
%TO.C,R2*%
X19153333Y-40077380D02*
X18820000Y-39601190D01*
X18581904Y-40077380D02*
X18581904Y-39077380D01*
X18962857Y-39077380D01*
X19058095Y-39125000D01*
X19105714Y-39172619D01*
X19153333Y-39267857D01*
X19153333Y-39410714D01*
X19105714Y-39505952D01*
X19058095Y-39553571D01*
X18962857Y-39601190D01*
X18581904Y-39601190D01*
X19534285Y-39172619D02*
X19581904Y-39125000D01*
X19677142Y-39077380D01*
X19915238Y-39077380D01*
X20010476Y-39125000D01*
X20058095Y-39172619D01*
X20105714Y-39267857D01*
X20105714Y-39363095D01*
X20058095Y-39505952D01*
X19486666Y-40077380D01*
X20105714Y-40077380D01*
D10*
%TO.C,P5*%
X25046047Y-78196190D02*
X25046047Y-77276190D01*
X25396523Y-77276190D01*
X25484142Y-77320000D01*
X25527952Y-77363809D01*
X25571761Y-77451428D01*
X25571761Y-77582857D01*
X25527952Y-77670476D01*
X25484142Y-77714285D01*
X25396523Y-77758095D01*
X25046047Y-77758095D01*
X26404142Y-77276190D02*
X25966047Y-77276190D01*
X25922238Y-77714285D01*
X25966047Y-77670476D01*
X26053666Y-77626666D01*
X26272714Y-77626666D01*
X26360333Y-77670476D01*
X26404142Y-77714285D01*
X26447952Y-77801904D01*
X26447952Y-78020952D01*
X26404142Y-78108571D01*
X26360333Y-78152380D01*
X26272714Y-78196190D01*
X26053666Y-78196190D01*
X25966047Y-78152380D01*
X25922238Y-78108571D01*
D11*
%TO.C,J1*%
X4952380Y-2213333D02*
X5666666Y-2213333D01*
X5809523Y-2260952D01*
X5904761Y-2356190D01*
X5952380Y-2499047D01*
X5952380Y-2594285D01*
X5952380Y-1213333D02*
X5952380Y-1784761D01*
X5952380Y-1499047D02*
X4952380Y-1499047D01*
X5095238Y-1594285D01*
X5190476Y-1689523D01*
X5238095Y-1784761D01*
D10*
%TO.C,P1*%
X25046047Y-19776190D02*
X25046047Y-18856190D01*
X25396523Y-18856190D01*
X25484142Y-18900000D01*
X25527952Y-18943809D01*
X25571761Y-19031428D01*
X25571761Y-19162857D01*
X25527952Y-19250476D01*
X25484142Y-19294285D01*
X25396523Y-19338095D01*
X25046047Y-19338095D01*
X26447952Y-19776190D02*
X25922238Y-19776190D01*
X26185095Y-19776190D02*
X26185095Y-18856190D01*
X26097476Y-18987619D01*
X26009857Y-19075238D01*
X25922238Y-19119047D01*
D11*
%TO.C,D1*%
X29746904Y-14207380D02*
X29746904Y-13207380D01*
X29985000Y-13207380D01*
X30127857Y-13255000D01*
X30223095Y-13350238D01*
X30270714Y-13445476D01*
X30318333Y-13635952D01*
X30318333Y-13778809D01*
X30270714Y-13969285D01*
X30223095Y-14064523D01*
X30127857Y-14159761D01*
X29985000Y-14207380D01*
X29746904Y-14207380D01*
X31270714Y-14207380D02*
X30699285Y-14207380D01*
X30985000Y-14207380D02*
X30985000Y-13207380D01*
X30889761Y-13350238D01*
X30794523Y-13445476D01*
X30699285Y-13493095D01*
%TO.C,U2*%
X18593095Y-32612380D02*
X18593095Y-33421904D01*
X18640714Y-33517142D01*
X18688333Y-33564761D01*
X18783571Y-33612380D01*
X18974047Y-33612380D01*
X19069285Y-33564761D01*
X19116904Y-33517142D01*
X19164523Y-33421904D01*
X19164523Y-32612380D01*
X19593095Y-32707619D02*
X19640714Y-32660000D01*
X19735952Y-32612380D01*
X19974047Y-32612380D01*
X20069285Y-32660000D01*
X20116904Y-32707619D01*
X20164523Y-32802857D01*
X20164523Y-32898095D01*
X20116904Y-33040952D01*
X19545476Y-33612380D01*
X20164523Y-33612380D01*
%TO.C,R5*%
X19248333Y-48447380D02*
X18915000Y-47971190D01*
X18676904Y-48447380D02*
X18676904Y-47447380D01*
X19057857Y-47447380D01*
X19153095Y-47495000D01*
X19200714Y-47542619D01*
X19248333Y-47637857D01*
X19248333Y-47780714D01*
X19200714Y-47875952D01*
X19153095Y-47923571D01*
X19057857Y-47971190D01*
X18676904Y-47971190D01*
X20153095Y-47447380D02*
X19676904Y-47447380D01*
X19629285Y-47923571D01*
X19676904Y-47875952D01*
X19772142Y-47828333D01*
X20010238Y-47828333D01*
X20105476Y-47875952D01*
X20153095Y-47923571D01*
X20200714Y-48018809D01*
X20200714Y-48256904D01*
X20153095Y-48352142D01*
X20105476Y-48399761D01*
X20010238Y-48447380D01*
X19772142Y-48447380D01*
X19676904Y-48399761D01*
X19629285Y-48352142D01*
D10*
%TO.C,P2*%
X25046047Y-34381190D02*
X25046047Y-33461190D01*
X25396523Y-33461190D01*
X25484142Y-33505000D01*
X25527952Y-33548809D01*
X25571761Y-33636428D01*
X25571761Y-33767857D01*
X25527952Y-33855476D01*
X25484142Y-33899285D01*
X25396523Y-33943095D01*
X25046047Y-33943095D01*
X25922238Y-33548809D02*
X25966047Y-33505000D01*
X26053666Y-33461190D01*
X26272714Y-33461190D01*
X26360333Y-33505000D01*
X26404142Y-33548809D01*
X26447952Y-33636428D01*
X26447952Y-33724047D01*
X26404142Y-33855476D01*
X25878428Y-34381190D01*
X26447952Y-34381190D01*
D11*
%TO.C,R4*%
X25233333Y-5132380D02*
X24900000Y-4656190D01*
X24661904Y-5132380D02*
X24661904Y-4132380D01*
X25042857Y-4132380D01*
X25138095Y-4180000D01*
X25185714Y-4227619D01*
X25233333Y-4322857D01*
X25233333Y-4465714D01*
X25185714Y-4560952D01*
X25138095Y-4608571D01*
X25042857Y-4656190D01*
X24661904Y-4656190D01*
X26090476Y-4465714D02*
X26090476Y-5132380D01*
X25852380Y-4084761D02*
X25614285Y-4799047D01*
X26233333Y-4799047D01*
%TO.C,U1*%
X18288095Y-16102380D02*
X18288095Y-16911904D01*
X18335714Y-17007142D01*
X18383333Y-17054761D01*
X18478571Y-17102380D01*
X18669047Y-17102380D01*
X18764285Y-17054761D01*
X18811904Y-17007142D01*
X18859523Y-16911904D01*
X18859523Y-16102380D01*
X19859523Y-17102380D02*
X19288095Y-17102380D01*
X19573809Y-17102380D02*
X19573809Y-16102380D01*
X19478571Y-16245238D01*
X19383333Y-16340476D01*
X19288095Y-16388095D01*
D10*
%TO.C,P4*%
X25046047Y-63591190D02*
X25046047Y-62671190D01*
X25396523Y-62671190D01*
X25484142Y-62715000D01*
X25527952Y-62758809D01*
X25571761Y-62846428D01*
X25571761Y-62977857D01*
X25527952Y-63065476D01*
X25484142Y-63109285D01*
X25396523Y-63153095D01*
X25046047Y-63153095D01*
X26360333Y-62977857D02*
X26360333Y-63591190D01*
X26141285Y-62627380D02*
X25922238Y-63284523D01*
X26491761Y-63284523D01*
D11*
%TO.C,R6*%
X19248333Y-63062380D02*
X18915000Y-62586190D01*
X18676904Y-63062380D02*
X18676904Y-62062380D01*
X19057857Y-62062380D01*
X19153095Y-62110000D01*
X19200714Y-62157619D01*
X19248333Y-62252857D01*
X19248333Y-62395714D01*
X19200714Y-62490952D01*
X19153095Y-62538571D01*
X19057857Y-62586190D01*
X18676904Y-62586190D01*
X20105476Y-62062380D02*
X19915000Y-62062380D01*
X19819761Y-62110000D01*
X19772142Y-62157619D01*
X19676904Y-62300476D01*
X19629285Y-62490952D01*
X19629285Y-62871904D01*
X19676904Y-62967142D01*
X19724523Y-63014761D01*
X19819761Y-63062380D01*
X20010238Y-63062380D01*
X20105476Y-63014761D01*
X20153095Y-62967142D01*
X20200714Y-62871904D01*
X20200714Y-62633809D01*
X20153095Y-62538571D01*
X20105476Y-62490952D01*
X20010238Y-62443333D01*
X19819761Y-62443333D01*
X19724523Y-62490952D01*
X19676904Y-62538571D01*
X19629285Y-62633809D01*
%TO.C,R7*%
X19248333Y-77667380D02*
X18915000Y-77191190D01*
X18676904Y-77667380D02*
X18676904Y-76667380D01*
X19057857Y-76667380D01*
X19153095Y-76715000D01*
X19200714Y-76762619D01*
X19248333Y-76857857D01*
X19248333Y-77000714D01*
X19200714Y-77095952D01*
X19153095Y-77143571D01*
X19057857Y-77191190D01*
X18676904Y-77191190D01*
X19581666Y-76667380D02*
X20248333Y-76667380D01*
X19819761Y-77667380D01*
%TO.C,R8*%
X19248333Y-92282380D02*
X18915000Y-91806190D01*
X18676904Y-92282380D02*
X18676904Y-91282380D01*
X19057857Y-91282380D01*
X19153095Y-91330000D01*
X19200714Y-91377619D01*
X19248333Y-91472857D01*
X19248333Y-91615714D01*
X19200714Y-91710952D01*
X19153095Y-91758571D01*
X19057857Y-91806190D01*
X18676904Y-91806190D01*
X19819761Y-91710952D02*
X19724523Y-91663333D01*
X19676904Y-91615714D01*
X19629285Y-91520476D01*
X19629285Y-91472857D01*
X19676904Y-91377619D01*
X19724523Y-91330000D01*
X19819761Y-91282380D01*
X20010238Y-91282380D01*
X20105476Y-91330000D01*
X20153095Y-91377619D01*
X20200714Y-91472857D01*
X20200714Y-91520476D01*
X20153095Y-91615714D01*
X20105476Y-91663333D01*
X20010238Y-91710952D01*
X19819761Y-91710952D01*
X19724523Y-91758571D01*
X19676904Y-91806190D01*
X19629285Y-91901428D01*
X19629285Y-92091904D01*
X19676904Y-92187142D01*
X19724523Y-92234761D01*
X19819761Y-92282380D01*
X20010238Y-92282380D01*
X20105476Y-92234761D01*
X20153095Y-92187142D01*
X20200714Y-92091904D01*
X20200714Y-91901428D01*
X20153095Y-91806190D01*
X20105476Y-91758571D01*
X20010238Y-91710952D01*
%TO.C,D2*%
X29746904Y-7222380D02*
X29746904Y-6222380D01*
X29985000Y-6222380D01*
X30127857Y-6270000D01*
X30223095Y-6365238D01*
X30270714Y-6460476D01*
X30318333Y-6650952D01*
X30318333Y-6793809D01*
X30270714Y-6984285D01*
X30223095Y-7079523D01*
X30127857Y-7174761D01*
X29985000Y-7222380D01*
X29746904Y-7222380D01*
X30699285Y-6317619D02*
X30746904Y-6270000D01*
X30842142Y-6222380D01*
X31080238Y-6222380D01*
X31175476Y-6270000D01*
X31223095Y-6317619D01*
X31270714Y-6412857D01*
X31270714Y-6508095D01*
X31223095Y-6650952D01*
X30651666Y-7222380D01*
X31270714Y-7222380D01*
%TO.C,C2*%
X18920833Y-31882142D02*
X18873214Y-31929761D01*
X18730357Y-31977380D01*
X18635119Y-31977380D01*
X18492261Y-31929761D01*
X18397023Y-31834523D01*
X18349404Y-31739285D01*
X18301785Y-31548809D01*
X18301785Y-31405952D01*
X18349404Y-31215476D01*
X18397023Y-31120238D01*
X18492261Y-31025000D01*
X18635119Y-30977380D01*
X18730357Y-30977380D01*
X18873214Y-31025000D01*
X18920833Y-31072619D01*
X19301785Y-31072619D02*
X19349404Y-31025000D01*
X19444642Y-30977380D01*
X19682738Y-30977380D01*
X19777976Y-31025000D01*
X19825595Y-31072619D01*
X19873214Y-31167857D01*
X19873214Y-31263095D01*
X19825595Y-31405952D01*
X19254166Y-31977380D01*
X19873214Y-31977380D01*
D12*
%TO.C,P6*%
X24075000Y-88345000D02*
X33075000Y-88345000D01*
X33075000Y-98845000D02*
X24075000Y-98845000D01*
D10*
X28075000Y-94345000D02*
X29075000Y-94345000D01*
D12*
X33075000Y-88345000D02*
X33075000Y-98845000D01*
X24075000Y-98845000D02*
X24075000Y-88345000D01*
D10*
X28575000Y-93845000D02*
X28575000Y-94845000D01*
D13*
%TO.C,C1*%
X19311252Y-12600000D02*
X18788748Y-12600000D01*
X19311252Y-14070000D02*
X18788748Y-14070000D01*
D12*
%TO.C,P3*%
X24075000Y-44530000D02*
X33075000Y-44530000D01*
D10*
X28075000Y-50530000D02*
X29075000Y-50530000D01*
D12*
X24075000Y-55030000D02*
X24075000Y-44530000D01*
X33075000Y-44530000D02*
X33075000Y-55030000D01*
X33075000Y-55030000D02*
X24075000Y-55030000D01*
D10*
X28575000Y-50030000D02*
X28575000Y-51030000D01*
D13*
%TO.C,R3*%
X25172936Y-10695000D02*
X25627064Y-10695000D01*
X25172936Y-12165000D02*
X25627064Y-12165000D01*
%TO.C,J2*%
X9540000Y-102785000D02*
X27380000Y-102785000D01*
X9540000Y-105445000D02*
X9540000Y-102785000D01*
X9540000Y-105445000D02*
X27380000Y-105445000D01*
X6940000Y-102785000D02*
X8270000Y-102785000D01*
X27380000Y-105445000D02*
X27380000Y-102785000D01*
X6940000Y-104115000D02*
X6940000Y-102785000D01*
%TO.C,R1*%
X18822936Y-25500000D02*
X19277064Y-25500000D01*
X18822936Y-24030000D02*
X19277064Y-24030000D01*
%TO.C,R2*%
X19092936Y-42010000D02*
X19547064Y-42010000D01*
X19092936Y-40540000D02*
X19547064Y-40540000D01*
D10*
%TO.C,P5*%
X28075000Y-79740000D02*
X29075000Y-79740000D01*
D12*
X33075000Y-84240000D02*
X24075000Y-84240000D01*
D10*
X28575000Y-79240000D02*
X28575000Y-80240000D01*
D12*
X24075000Y-84240000D02*
X24075000Y-73740000D01*
X24075000Y-73740000D02*
X33075000Y-73740000D01*
X33075000Y-73740000D02*
X33075000Y-84240000D01*
D13*
%TO.C,J1*%
X9540000Y-3210000D02*
X9540000Y-550000D01*
X9540000Y-550000D02*
X27380000Y-550000D01*
X6940000Y-1880000D02*
X6940000Y-550000D01*
X9540000Y-3210000D02*
X27380000Y-3210000D01*
X6940000Y-550000D02*
X8270000Y-550000D01*
X27380000Y-3210000D02*
X27380000Y-550000D01*
D10*
%TO.C,P1*%
X28075000Y-21320000D02*
X29075000Y-21320000D01*
D12*
X33075000Y-25820000D02*
X24075000Y-25820000D01*
D10*
X28575000Y-20820000D02*
X28575000Y-21820000D01*
D12*
X33075000Y-15320000D02*
X33075000Y-25820000D01*
X24075000Y-15320000D02*
X33075000Y-15320000D01*
X24075000Y-25820000D02*
X24075000Y-15320000D01*
D13*
%TO.C,D1*%
X32045000Y-12031000D02*
X32045000Y-11875000D01*
X32045000Y-9715000D02*
X32045000Y-9559000D01*
X29443870Y-11874837D02*
G75*
G03*
X31525961Y-11875000I1041130J1079837D01*
G01*
X28812665Y-11873608D02*
G75*
G03*
X32045000Y-12030516I1672335J1078608D01*
G01*
X31525961Y-9715000D02*
G75*
G03*
X29443870Y-9715163I-1040961J-1080000D01*
G01*
X32045000Y-9559484D02*
G75*
G03*
X28812665Y-9716392I-1560000J-1235516D01*
G01*
%TO.C,U2*%
X19355000Y-37120000D02*
X20155000Y-37120000D01*
X19355000Y-34000000D02*
X20155000Y-34000000D01*
X19355000Y-34000000D02*
X17555000Y-34000000D01*
X19355000Y-37120000D02*
X18555000Y-37120000D01*
%TO.C,R5*%
X19642064Y-45610000D02*
X19187936Y-45610000D01*
X19642064Y-47080000D02*
X19187936Y-47080000D01*
D12*
%TO.C,P2*%
X33075000Y-29925000D02*
X33075000Y-40425000D01*
D10*
X28575000Y-35425000D02*
X28575000Y-36425000D01*
D12*
X24075000Y-40425000D02*
X24075000Y-29925000D01*
X24075000Y-29925000D02*
X33075000Y-29925000D01*
X33075000Y-40425000D02*
X24075000Y-40425000D01*
D10*
X28075000Y-35925000D02*
X29075000Y-35925000D01*
D13*
%TO.C,R4*%
X25172936Y-7065000D02*
X25627064Y-7065000D01*
X25172936Y-5595000D02*
X25627064Y-5595000D01*
%TO.C,U1*%
X19050000Y-17490000D02*
X19850000Y-17490000D01*
X19050000Y-17490000D02*
X17250000Y-17490000D01*
X19050000Y-20610000D02*
X19850000Y-20610000D01*
X19050000Y-20610000D02*
X18250000Y-20610000D01*
D12*
%TO.C,P4*%
X24075000Y-59135000D02*
X33075000Y-59135000D01*
D10*
X28575000Y-64635000D02*
X28575000Y-65635000D01*
D12*
X24075000Y-69635000D02*
X24075000Y-59135000D01*
D10*
X28075000Y-65135000D02*
X29075000Y-65135000D01*
D12*
X33075000Y-69635000D02*
X24075000Y-69635000D01*
X33075000Y-59135000D02*
X33075000Y-69635000D01*
D13*
%TO.C,R6*%
X19642064Y-61695000D02*
X19187936Y-61695000D01*
X19642064Y-60225000D02*
X19187936Y-60225000D01*
%TO.C,R7*%
X19642064Y-76300000D02*
X19187936Y-76300000D01*
X19642064Y-74830000D02*
X19187936Y-74830000D01*
%TO.C,R8*%
X19642064Y-90915000D02*
X19187936Y-90915000D01*
X19642064Y-89445000D02*
X19187936Y-89445000D01*
%TO.C,D2*%
X32045000Y-5046000D02*
X32045000Y-4890000D01*
X32045000Y-2730000D02*
X32045000Y-2574000D01*
X32045000Y-2574484D02*
G75*
G03*
X28812665Y-2731392I-1560000J-1235516D01*
G01*
X31525961Y-2730000D02*
G75*
G03*
X29443870Y-2730163I-1040961J-1080000D01*
G01*
X28812665Y-4888608D02*
G75*
G03*
X32045000Y-5045516I1672335J1078608D01*
G01*
X29443870Y-4889837D02*
G75*
G03*
X31525961Y-4890000I1041130J1079837D01*
G01*
%TO.C,C2*%
X19348752Y-29110000D02*
X18826248Y-29110000D01*
X19348752Y-30580000D02*
X18826248Y-30580000D01*
%TD*%
M02*
