M48
; DRILL file {KiCad (6.0.10-0)} date Monday, 16 January 2023 at 08:29:03 pm
; FORMAT={-:-/ absolute / inch / decimal}
; #@! TF.CreationDate,2023-01-16T20:29:03+10:30
; #@! TF.GenerationSoftware,Kicad,Pcbnew,(6.0.10-0)
; #@! TF.FileFunction,Plated,1,2,PTH
FMAT,2
INCH
; #@! TA.AperFunction,Plated,PTH,ViaDrill
T1C0.0157
; #@! TA.AperFunction,Plated,PTH,ComponentDrill
T2C0.0354
; #@! TA.AperFunction,Plated,PTH,ComponentDrill
T3C0.0394
; #@! TA.AperFunction,Plated,PTH,ComponentDrill
T4C0.0531
; #@! TA.AperFunction,Plated,PTH,ComponentDrill
T5C0.0610
%
G90
G05
T1
X0.425Y-0.45
X0.45Y-0.875
X0.625Y-1.4
X0.65Y-0.75
X0.6516Y-0.4626
X0.675Y-0.875
T2
X1.1502Y-0.15
X1.1502Y-0.425
X1.2502Y-0.15
X1.2502Y-0.425
T3
X0.3256Y-0.074
X0.3256Y-4.099
X0.4256Y-0.074
X0.4256Y-4.099
X0.5256Y-0.074
X0.5256Y-4.099
X0.6256Y-0.074
X0.6256Y-4.099
X0.7256Y-0.074
X0.7256Y-4.099
X0.8256Y-0.074
X0.8256Y-4.099
X0.9256Y-0.074
X0.9256Y-4.099
X1.0256Y-0.074
X1.0256Y-4.099
T4
X1.125Y-1.0945
X1.125Y-1.6695
X1.125Y-2.2445
X1.125Y-2.8195
X1.125Y-3.3945
X1.125Y-3.9695
T5
X1.125Y-0.6488
X1.125Y-0.9724
X1.125Y-1.2238
X1.125Y-1.5474
X1.125Y-1.7988
X1.125Y-2.1224
X1.125Y-2.3738
X1.125Y-2.6974
X1.125Y-2.9488
X1.125Y-3.2724
X1.125Y-3.5238
X1.125Y-3.8474
T0
M30
