%TF.GenerationSoftware,KiCad,Pcbnew,(6.0.10-0)*%
%TF.CreationDate,2023-01-30T15:13:09+10:30*%
%TF.ProjectId,BLE_Module,424c455f-4d6f-4647-956c-652e6b696361,rev?*%
%TF.SameCoordinates,Original*%
%TF.FileFunction,Legend,Bot*%
%TF.FilePolarity,Positive*%
%FSLAX46Y46*%
G04 Gerber Fmt 4.6, Leading zero omitted, Abs format (unit mm)*
G04 Created by KiCad (PCBNEW (6.0.10-0)) date 2023-01-30 15:13:09*
%MOMM*%
%LPD*%
G01*
G04 APERTURE LIST*
%ADD10C,0.228600*%
%ADD11C,0.114300*%
%ADD12C,0.150000*%
%ADD13C,0.127000*%
%ADD14C,0.200000*%
%ADD15C,0.152400*%
%ADD16C,0.508000*%
%ADD17C,0.120000*%
G04 APERTURE END LIST*
D10*
%TO.C,CON1*%
X12864560Y-92956225D02*
X11877589Y-92956225D01*
X12371074Y-93449711D02*
X12371074Y-92462739D01*
X21628059Y-91901010D02*
X21628059Y-92887981D01*
D11*
X16107725Y-94330247D02*
X16076882Y-94268562D01*
X16076882Y-94176033D01*
X16107725Y-94083505D01*
X16169410Y-94021819D01*
X16231096Y-93990976D01*
X16354467Y-93960133D01*
X16446996Y-93960133D01*
X16570367Y-93990976D01*
X16632053Y-94021819D01*
X16693739Y-94083505D01*
X16724582Y-94176033D01*
X16724582Y-94237719D01*
X16693739Y-94330247D01*
X16662896Y-94361090D01*
X16446996Y-94361090D01*
X16446996Y-94237719D01*
X16724582Y-94638676D02*
X16076882Y-94638676D01*
X16724582Y-95008790D01*
X16076882Y-95008790D01*
X16724582Y-95317219D02*
X16076882Y-95317219D01*
X16076882Y-95471433D01*
X16107725Y-95563962D01*
X16169410Y-95625647D01*
X16231096Y-95656490D01*
X16354467Y-95687333D01*
X16446996Y-95687333D01*
X16570367Y-95656490D01*
X16632053Y-95625647D01*
X16693739Y-95563962D01*
X16724582Y-95471433D01*
X16724582Y-95317219D01*
X13706247Y-90547529D02*
X13675404Y-90485844D01*
X13675404Y-90393315D01*
X13706247Y-90300787D01*
X13767932Y-90239101D01*
X13829618Y-90208258D01*
X13952989Y-90177415D01*
X14045518Y-90177415D01*
X14168889Y-90208258D01*
X14230575Y-90239101D01*
X14292261Y-90300787D01*
X14323104Y-90393315D01*
X14323104Y-90455001D01*
X14292261Y-90547529D01*
X14261418Y-90578372D01*
X14045518Y-90578372D01*
X14045518Y-90455001D01*
X14323104Y-90855958D02*
X13675404Y-90855958D01*
X14323104Y-91226072D01*
X13675404Y-91226072D01*
X14323104Y-91534501D02*
X13675404Y-91534501D01*
X13675404Y-91688715D01*
X13706247Y-91781244D01*
X13767932Y-91842929D01*
X13829618Y-91873772D01*
X13952989Y-91904615D01*
X14045518Y-91904615D01*
X14168889Y-91873772D01*
X14230575Y-91842929D01*
X14292261Y-91781244D01*
X14323104Y-91688715D01*
X14323104Y-91534501D01*
X18629209Y-94302963D02*
X18598366Y-94241278D01*
X18598366Y-94148749D01*
X18629209Y-94056221D01*
X18690894Y-93994535D01*
X18752580Y-93963692D01*
X18875951Y-93932849D01*
X18968480Y-93932849D01*
X19091851Y-93963692D01*
X19153537Y-93994535D01*
X19215223Y-94056221D01*
X19246066Y-94148749D01*
X19246066Y-94210435D01*
X19215223Y-94302963D01*
X19184380Y-94333806D01*
X18968480Y-94333806D01*
X18968480Y-94210435D01*
X19246066Y-94611392D02*
X18598366Y-94611392D01*
X19246066Y-94981506D01*
X18598366Y-94981506D01*
X19246066Y-95289935D02*
X18598366Y-95289935D01*
X18598366Y-95444149D01*
X18629209Y-95536678D01*
X18690894Y-95598363D01*
X18752580Y-95629206D01*
X18875951Y-95660049D01*
X18968480Y-95660049D01*
X19091851Y-95629206D01*
X19153537Y-95598363D01*
X19215223Y-95536678D01*
X19246066Y-95444149D01*
X19246066Y-95289935D01*
D12*
%TO.C,U5*%
X18176904Y-82942380D02*
X18176904Y-83751904D01*
X18129285Y-83847142D01*
X18081666Y-83894761D01*
X17986428Y-83942380D01*
X17795952Y-83942380D01*
X17700714Y-83894761D01*
X17653095Y-83847142D01*
X17605476Y-83751904D01*
X17605476Y-82942380D01*
X16653095Y-82942380D02*
X17129285Y-82942380D01*
X17176904Y-83418571D01*
X17129285Y-83370952D01*
X17034047Y-83323333D01*
X16795952Y-83323333D01*
X16700714Y-83370952D01*
X16653095Y-83418571D01*
X16605476Y-83513809D01*
X16605476Y-83751904D01*
X16653095Y-83847142D01*
X16700714Y-83894761D01*
X16795952Y-83942380D01*
X17034047Y-83942380D01*
X17129285Y-83894761D01*
X17176904Y-83847142D01*
D13*
%TO.C,U1*%
X26145000Y-60145000D02*
X26145000Y-53945000D01*
X21205000Y-4845000D02*
X21205000Y-5745000D01*
X3195000Y-5745000D02*
X13075000Y-5745000D01*
X31095000Y-5745000D02*
X31095000Y-53945000D01*
X21205000Y-5745000D02*
X31095000Y-5745000D01*
X8145000Y-53945000D02*
X3195000Y-53945000D01*
X31095000Y-53945000D02*
X26145000Y-53945000D01*
X8145000Y-60145000D02*
X26145000Y-60145000D01*
X8145000Y-53945000D02*
X8145000Y-60145000D01*
X3195000Y-53945000D02*
X3195000Y-5745000D01*
X13075000Y-5745000D02*
X13075000Y-4845000D01*
X13075000Y-4845000D02*
X21205000Y-4845000D01*
D14*
X2675000Y-52815000D02*
G75*
G03*
X2675000Y-52815000I-100000J0D01*
G01*
D15*
%TO.C,CON1*%
X11430000Y-95885000D02*
X10795000Y-96520000D01*
X10795000Y-100330000D02*
X11430000Y-100965000D01*
X10795000Y-96520000D02*
X10795000Y-100330000D01*
D16*
X23876000Y-95504000D02*
X23876000Y-101854000D01*
%TO.C,G\u002A\u002A\u002A*%
G36*
X18331256Y-64904883D02*
G01*
X18446931Y-64905036D01*
X18569445Y-64905268D01*
X18697487Y-64905582D01*
X19586045Y-64908002D01*
X19788742Y-65258936D01*
X19811299Y-65298010D01*
X19853946Y-65371996D01*
X19893673Y-65441059D01*
X19929383Y-65503284D01*
X19959979Y-65556755D01*
X19984363Y-65599556D01*
X20001439Y-65629772D01*
X20010110Y-65645485D01*
X20028781Y-65681102D01*
X18250855Y-65676262D01*
X18029892Y-65293045D01*
X17988203Y-65220685D01*
X17946225Y-65147694D01*
X17908152Y-65081357D01*
X17874914Y-65023304D01*
X17847441Y-64975163D01*
X17826666Y-64938563D01*
X17813518Y-64915131D01*
X17808928Y-64906496D01*
X17809499Y-64906377D01*
X17823231Y-64905939D01*
X17854298Y-64905570D01*
X17901387Y-64905271D01*
X17963187Y-64905045D01*
X18038386Y-64904891D01*
X18125672Y-64904812D01*
X18223733Y-64904809D01*
X18331256Y-64904883D01*
G37*
G36*
X16474748Y-61823015D02*
G01*
X16920766Y-61825478D01*
X17363498Y-62593738D01*
X17806231Y-63361998D01*
X18249669Y-63364463D01*
X18350521Y-63364963D01*
X18438367Y-63365228D01*
X18510158Y-63365196D01*
X18567380Y-63364831D01*
X18611519Y-63364096D01*
X18644061Y-63362953D01*
X18666493Y-63361367D01*
X18680299Y-63359298D01*
X18686966Y-63356712D01*
X18687981Y-63353571D01*
X18684320Y-63346500D01*
X18671915Y-63324123D01*
X18651753Y-63288377D01*
X18624810Y-63240977D01*
X18592064Y-63183637D01*
X18554492Y-63118072D01*
X18513073Y-63045995D01*
X18468782Y-62969122D01*
X18433359Y-62907638D01*
X18391649Y-62835025D01*
X18353755Y-62768820D01*
X18320626Y-62710690D01*
X18293209Y-62662303D01*
X18272452Y-62625328D01*
X18259303Y-62601434D01*
X18254709Y-62592289D01*
X18258606Y-62584449D01*
X18271107Y-62561654D01*
X18291309Y-62525588D01*
X18318282Y-62477895D01*
X18351092Y-62420217D01*
X18388808Y-62354197D01*
X18430497Y-62281476D01*
X18475228Y-62203699D01*
X18695747Y-61820850D01*
X24032971Y-61825478D01*
X24475729Y-62593738D01*
X24918488Y-63361998D01*
X25361505Y-63364463D01*
X25445997Y-63364839D01*
X25529969Y-63365015D01*
X25606119Y-63364971D01*
X25672590Y-63364718D01*
X25727523Y-63364267D01*
X25769062Y-63363629D01*
X25795347Y-63362814D01*
X25804522Y-63361835D01*
X25804500Y-63361745D01*
X25799246Y-63351881D01*
X25785223Y-63326831D01*
X25763098Y-63287759D01*
X25733536Y-63235828D01*
X25697205Y-63172204D01*
X25654770Y-63098049D01*
X25606897Y-63014530D01*
X25554253Y-62922809D01*
X25497504Y-62824051D01*
X25437315Y-62719420D01*
X25374354Y-62610080D01*
X25371759Y-62605576D01*
X25308609Y-62495942D01*
X25248045Y-62390758D01*
X25190756Y-62291221D01*
X25137430Y-62198531D01*
X25088757Y-62113886D01*
X25045424Y-62038484D01*
X25008121Y-61973525D01*
X24977537Y-61920206D01*
X24954359Y-61879726D01*
X24939278Y-61853283D01*
X24932982Y-61842076D01*
X24921779Y-61820736D01*
X25809265Y-61821030D01*
X26449481Y-62932446D01*
X26484624Y-62993455D01*
X26561237Y-63126455D01*
X26635286Y-63255001D01*
X26706193Y-63378096D01*
X26773386Y-63494739D01*
X26836287Y-63603933D01*
X26894322Y-63704679D01*
X26946916Y-63795978D01*
X26993493Y-63876831D01*
X27033478Y-63946241D01*
X27066295Y-64003207D01*
X27091370Y-64046732D01*
X27108127Y-64075818D01*
X27115991Y-64089464D01*
X27142284Y-64135066D01*
X25807139Y-64132662D01*
X24471993Y-64130258D01*
X24029368Y-63361998D01*
X23586744Y-62593738D01*
X23140357Y-62591274D01*
X22693969Y-62588810D01*
X22758753Y-62700348D01*
X22762842Y-62707393D01*
X22786291Y-62747891D01*
X22816898Y-62800868D01*
X22852792Y-62863081D01*
X22892104Y-62931288D01*
X22932964Y-63002247D01*
X22973501Y-63072715D01*
X22992379Y-63105539D01*
X23028226Y-63167827D01*
X23060701Y-63224197D01*
X23088589Y-63272543D01*
X23110674Y-63310759D01*
X23125741Y-63336739D01*
X23132574Y-63348376D01*
X23133192Y-63351625D01*
X23130366Y-63363406D01*
X23121947Y-63383713D01*
X23107346Y-63413656D01*
X23085973Y-63454345D01*
X23057239Y-63506887D01*
X23020555Y-63572393D01*
X22975332Y-63651972D01*
X22920981Y-63746733D01*
X22879270Y-63819203D01*
X22837247Y-63892186D01*
X22799060Y-63958476D01*
X22765647Y-64016448D01*
X22737943Y-64064477D01*
X22716888Y-64100938D01*
X22703416Y-64124206D01*
X22698466Y-64132656D01*
X22698056Y-64132162D01*
X22690749Y-64120259D01*
X22674820Y-64093344D01*
X22650925Y-64052548D01*
X22619720Y-63999002D01*
X22581861Y-63933836D01*
X22538003Y-63858183D01*
X22488803Y-63773172D01*
X22434916Y-63679934D01*
X22376997Y-63579600D01*
X22315703Y-63473302D01*
X22251688Y-63362169D01*
X21806725Y-62589285D01*
X21362756Y-62589140D01*
X21276930Y-62589247D01*
X21193252Y-62589629D01*
X21117534Y-62590258D01*
X21051609Y-62591107D01*
X20997314Y-62592145D01*
X20956483Y-62593345D01*
X20930951Y-62594675D01*
X20922553Y-62596109D01*
X20926337Y-62602793D01*
X20938771Y-62624556D01*
X20958903Y-62659713D01*
X20985774Y-62706592D01*
X21018423Y-62763519D01*
X21055892Y-62828823D01*
X21097221Y-62900831D01*
X21141452Y-62977868D01*
X21178120Y-63041801D01*
X21219909Y-63114862D01*
X21257930Y-63181551D01*
X21291233Y-63240190D01*
X21318867Y-63289102D01*
X21339882Y-63326609D01*
X21353329Y-63351034D01*
X21358258Y-63360699D01*
X21357020Y-63364505D01*
X21347976Y-63382803D01*
X21331150Y-63414193D01*
X21307685Y-63456703D01*
X21278720Y-63508359D01*
X21245397Y-63567186D01*
X21208858Y-63631211D01*
X21170242Y-63698460D01*
X21130690Y-63766959D01*
X21091345Y-63834735D01*
X21053347Y-63899813D01*
X21017836Y-63960220D01*
X20985955Y-64013982D01*
X20958843Y-64059125D01*
X20937642Y-64093675D01*
X20923493Y-64115659D01*
X20917537Y-64123103D01*
X20917163Y-64122736D01*
X20909767Y-64111340D01*
X20893718Y-64084863D01*
X20869687Y-64044453D01*
X20838344Y-63991257D01*
X20800357Y-63926423D01*
X20756397Y-63851097D01*
X20707134Y-63766427D01*
X20653238Y-63673561D01*
X20595378Y-63573645D01*
X20534224Y-63467828D01*
X20470445Y-63357255D01*
X20030466Y-62593738D01*
X19584498Y-62591274D01*
X19138531Y-62588811D01*
X19582774Y-63359534D01*
X20027017Y-64130258D01*
X18250236Y-64132653D01*
X16473455Y-64135049D01*
X16695686Y-64520522D01*
X16917917Y-64905996D01*
X16811152Y-65091950D01*
X16807782Y-65097819D01*
X16768315Y-65166469D01*
X16723194Y-65244831D01*
X16675943Y-65326795D01*
X16630084Y-65406249D01*
X16589139Y-65477084D01*
X16473891Y-65676262D01*
X16914756Y-65678728D01*
X16922694Y-65678772D01*
X17025497Y-65679421D01*
X17110943Y-65680135D01*
X17180537Y-65680971D01*
X17235786Y-65681984D01*
X17278194Y-65683231D01*
X17309269Y-65684769D01*
X17330516Y-65686652D01*
X17343441Y-65688936D01*
X17349549Y-65691679D01*
X17350347Y-65694936D01*
X17348549Y-65698492D01*
X17338522Y-65716696D01*
X17320824Y-65748180D01*
X17296637Y-65790883D01*
X17267141Y-65842743D01*
X17233518Y-65901699D01*
X17196949Y-65965688D01*
X17158617Y-66032649D01*
X17119703Y-66100521D01*
X17081388Y-66167243D01*
X17044853Y-66230751D01*
X17011281Y-66288985D01*
X16981853Y-66339884D01*
X16957750Y-66381385D01*
X16940154Y-66411427D01*
X16930247Y-66427948D01*
X16916898Y-66449314D01*
X15138053Y-66446918D01*
X13359207Y-66444522D01*
X12917203Y-65677495D01*
X12853719Y-65567392D01*
X12785065Y-65448524D01*
X12724825Y-65344509D01*
X12672463Y-65254456D01*
X12627441Y-65177473D01*
X12589221Y-65112672D01*
X12557268Y-65059160D01*
X12531044Y-65016048D01*
X12510011Y-64982445D01*
X12493633Y-64957460D01*
X12481372Y-64940202D01*
X12472692Y-64929782D01*
X12467055Y-64925308D01*
X12463924Y-64925889D01*
X12463705Y-64926207D01*
X12456490Y-64938129D01*
X12440569Y-64965192D01*
X12416625Y-65006216D01*
X12385344Y-65060020D01*
X12347408Y-65125423D01*
X12303501Y-65201243D01*
X12254307Y-65286301D01*
X12200511Y-65379415D01*
X12142796Y-65479405D01*
X12081846Y-65585089D01*
X12018344Y-65695287D01*
X11584040Y-66449264D01*
X8029546Y-66449264D01*
X8040919Y-66427924D01*
X8044322Y-66421805D01*
X8056810Y-66399823D01*
X8077098Y-66364346D01*
X8104153Y-66317171D01*
X8136942Y-66260095D01*
X8174435Y-66194917D01*
X8215598Y-66123433D01*
X8259400Y-66047442D01*
X8288940Y-65996181D01*
X8330279Y-65924317D01*
X8367897Y-65858770D01*
X8400832Y-65801224D01*
X8428123Y-65753365D01*
X8448807Y-65716876D01*
X8461923Y-65693441D01*
X8466509Y-65684746D01*
X8458654Y-65684035D01*
X8433605Y-65683219D01*
X8393169Y-65682380D01*
X8339209Y-65681543D01*
X8273585Y-65680734D01*
X8198161Y-65679978D01*
X8114797Y-65679301D01*
X8025356Y-65678727D01*
X7584203Y-65676262D01*
X8026705Y-64908002D01*
X7583659Y-64905539D01*
X7140613Y-64903075D01*
X7360624Y-64521409D01*
X7580635Y-64139742D01*
X8026424Y-64137279D01*
X8472214Y-64134817D01*
X9362812Y-65680951D01*
X9806555Y-65680978D01*
X10250298Y-65681004D01*
X10238925Y-65659664D01*
X10235389Y-65653317D01*
X10222753Y-65631123D01*
X10202317Y-65595463D01*
X10175111Y-65548129D01*
X10142168Y-65490914D01*
X10104518Y-65425610D01*
X10063193Y-65354010D01*
X10019225Y-65277905D01*
X9989311Y-65226061D01*
X9947753Y-65153712D01*
X9909924Y-65087476D01*
X9876791Y-65029068D01*
X9849321Y-64980202D01*
X9828483Y-64942592D01*
X9815241Y-64917954D01*
X9810565Y-64908002D01*
X9811804Y-64904655D01*
X9820827Y-64886925D01*
X9837626Y-64855974D01*
X9861061Y-64813787D01*
X9889991Y-64762343D01*
X9923273Y-64703626D01*
X9959767Y-64639616D01*
X9998332Y-64572297D01*
X10037825Y-64503649D01*
X10077107Y-64435656D01*
X10115034Y-64370298D01*
X10150467Y-64309557D01*
X10182263Y-64255416D01*
X10209282Y-64209856D01*
X10230382Y-64174860D01*
X10244421Y-64152409D01*
X10250259Y-64144485D01*
X10250591Y-64144785D01*
X10257770Y-64155840D01*
X10273603Y-64181980D01*
X10297423Y-64222064D01*
X10328564Y-64274949D01*
X10366358Y-64339490D01*
X10410138Y-64414545D01*
X10459237Y-64498971D01*
X10512989Y-64591625D01*
X10570725Y-64691363D01*
X10631780Y-64797043D01*
X10695487Y-64907521D01*
X10708140Y-64929478D01*
X10771371Y-65039005D01*
X10831843Y-65143432D01*
X10888888Y-65241625D01*
X10941838Y-65332446D01*
X10990026Y-65414762D01*
X11032785Y-65487436D01*
X11069445Y-65549332D01*
X11099339Y-65599316D01*
X11121801Y-65636250D01*
X11136161Y-65659001D01*
X11141752Y-65666431D01*
X11142107Y-65666022D01*
X11149422Y-65654394D01*
X11165393Y-65627688D01*
X11189350Y-65587055D01*
X11220625Y-65533645D01*
X11258548Y-65468610D01*
X11302449Y-65393100D01*
X11351661Y-65308266D01*
X11405513Y-65215258D01*
X11463336Y-65115228D01*
X11524461Y-65009326D01*
X11588219Y-64898703D01*
X12028010Y-64135101D01*
X12473790Y-64135397D01*
X12919571Y-64135693D01*
X13355866Y-64895133D01*
X13365032Y-64911086D01*
X13428252Y-65021087D01*
X13488797Y-65126367D01*
X13545990Y-65225754D01*
X13599153Y-65318075D01*
X13647612Y-65402155D01*
X13690688Y-65476823D01*
X13727705Y-65540904D01*
X13757986Y-65593226D01*
X13780854Y-65632615D01*
X13795634Y-65657899D01*
X13801647Y-65667904D01*
X13804521Y-65670209D01*
X13813138Y-65672967D01*
X13828482Y-65675187D01*
X13852082Y-65676905D01*
X13885469Y-65678159D01*
X13930174Y-65678985D01*
X13987725Y-65679421D01*
X14059654Y-65679502D01*
X14147490Y-65679266D01*
X14252764Y-65678749D01*
X14694397Y-65676262D01*
X14471851Y-65289761D01*
X14249304Y-64903260D01*
X13809699Y-64903260D01*
X13728169Y-64903136D01*
X13644378Y-64902735D01*
X13568377Y-64902084D01*
X13502028Y-64901214D01*
X13447196Y-64900155D01*
X13405743Y-64898937D01*
X13379533Y-64897591D01*
X13370428Y-64896146D01*
X13373717Y-64889333D01*
X13385617Y-64867481D01*
X13405299Y-64832281D01*
X13431818Y-64785400D01*
X13464226Y-64728503D01*
X13501576Y-64663257D01*
X13542921Y-64591330D01*
X13587315Y-64514387D01*
X13803867Y-64139742D01*
X14695387Y-64134816D01*
X15139054Y-64905539D01*
X15155156Y-64933510D01*
X15218467Y-65043484D01*
X15278877Y-65148408D01*
X15335729Y-65247143D01*
X15388368Y-65338550D01*
X15436137Y-65421490D01*
X15478381Y-65494824D01*
X15514442Y-65557413D01*
X15543665Y-65608118D01*
X15565394Y-65645799D01*
X15578973Y-65669318D01*
X15583745Y-65677535D01*
X15585654Y-65674651D01*
X15595683Y-65657849D01*
X15613305Y-65627764D01*
X15637388Y-65586360D01*
X15666804Y-65535602D01*
X15700420Y-65477453D01*
X15737108Y-65413880D01*
X15775736Y-65346846D01*
X15815174Y-65278316D01*
X15854292Y-65210256D01*
X15891959Y-65144630D01*
X15927045Y-65083402D01*
X15958420Y-65028537D01*
X15984953Y-64982001D01*
X16005513Y-64945757D01*
X16018970Y-64921770D01*
X16024195Y-64912006D01*
X16020800Y-64910757D01*
X16000866Y-64908871D01*
X15964398Y-64907086D01*
X15912878Y-64905440D01*
X15847789Y-64903969D01*
X15770614Y-64902711D01*
X15682834Y-64901703D01*
X15585932Y-64900983D01*
X15144538Y-64898517D01*
X15364460Y-64516850D01*
X15584381Y-64135183D01*
X16030310Y-64132720D01*
X16476238Y-64130258D01*
X16913552Y-63371482D01*
X16029996Y-63361998D01*
X16250791Y-62978686D01*
X16292464Y-62906285D01*
X16334406Y-62833294D01*
X16372448Y-62766969D01*
X16405658Y-62708935D01*
X16433107Y-62660822D01*
X16453865Y-62624257D01*
X16467002Y-62600866D01*
X16471587Y-62592278D01*
X16463739Y-62591654D01*
X16438697Y-62590925D01*
X16398268Y-62590165D01*
X16344313Y-62589397D01*
X16278695Y-62588645D01*
X16203276Y-62587932D01*
X16119917Y-62587282D01*
X16030481Y-62586718D01*
X15589374Y-62584253D01*
X15809052Y-62202402D01*
X16028729Y-61820553D01*
X16474748Y-61823015D01*
G37*
D17*
%TO.C,U5*%
X22535000Y-84490000D02*
X22535000Y-89131000D01*
X12295000Y-84490000D02*
X12295000Y-89131000D01*
X22535000Y-89131000D02*
X12295000Y-89131000D01*
X15564000Y-84490000D02*
X15564000Y-86000000D01*
X22535000Y-84490000D02*
X12295000Y-84490000D01*
X19265000Y-84490000D02*
X19265000Y-86000000D01*
X22535000Y-86000000D02*
X12295000Y-86000000D01*
%TD*%
M02*
